0
SECTION
2
HEADER
9
$INSUNITS
70
4
9
$ACADVER
1
AC1014
9
$HANDSEED
5
FFFF
0
ENDSEC
0
SECTION
2
TABLES
0
TABLE
2
VPORT
5
8
100
AcDbSymbolTable
0
ENDTAB
0
TABLE
2
LTYPE
5
5
100
AcDbSymbolTable
0
LTYPE
5
14
100
AcDbSymbolTableRecord
100
AcDbLinetypeTableRecord
2
BYBLOCK
70
0
0
LTYPE
5
15
100
AcDbSymbolTableRecord
100
AcDbLinetypeTableRecord
2
BYLAYER
70
0
0
ENDTAB
0
TABLE
2
LAYER
5
2
100
AcDbSymbolTable
70
2
0
LAYER
5
50
100
AcDbSymbolTableRecord
100
AcDbLayerTableRecord
2
0
70
0
6
CONTINUOUS
0
ENDTAB
0
TABLE
2
STYLE
5
3
100
AcDbSymbolTable
70
1
0
STYLE
5
11
100
AcDbSymbolTableRecord
100
AcDbTextStyleTableRecord
2
STANDARD
70
0
0
ENDTAB
0
TABLE
2
VIEW
5
6
100
AcDbSymbolTable
70
0
0
ENDTAB
0
TABLE
2
UCS
5
7
100
AcDbSymbolTable
70
0
0
ENDTAB
0
TABLE
2
APPID
5
9
100
AcDbSymbolTable
70
2
0
APPID
5
12
100
AcDbSymbolTableRecord
100
AcDbRegAppTableRecord
2
ACAD
70
0
0
ENDTAB
0
TABLE
2
DIMSTYLE
5
A
100
AcDbSymbolTable
70
1
0
ENDTAB
0
TABLE
2
BLOCK_RECORD
5
1
100
AcDbSymbolTable
70
1
0
BLOCK_RECORD
5
1F
100
AcDbSymbolTableRecord
100
AcDbBlockTableRecord
2
*MODEL_SPACE
0
BLOCK_RECORD
5
1B
100
AcDbSymbolTableRecord
100
AcDbBlockTableRecord
2
*PAPER_SPACE
0
ENDTAB
0
ENDSEC
0
SECTION
2
BLOCKS
0
BLOCK
5
20
100
AcDbEntity
100
AcDbBlockBegin
2
*MODEL_SPACE
0
ENDBLK
5
21
100
AcDbEntity
100
AcDbBlockEnd
0
BLOCK
5
1C
100
AcDbEntity
100
AcDbBlockBegin
2
*PAPER_SPACE
0
ENDBLK
5
1D
100
AcDbEntity
100
AcDbBlockEnd
0
ENDSEC
0
SECTION
2
ENTITIES
0
LWPOLYLINE
5
100
100
AcDbEntity
8
0
100
AcDbPolyline
90
8
70
1
43
0.0
10
26.837499999999999
20
-2.5249999999999999
10
39.837499999999999
20
-2.5249999999999972
42
-0.41421356237309503
10
40.337500000000006
20
-3.0249999999999999
10
40.337499999999991
20
-16.024999999999999
42
-0.41421356237309503
10
39.837499999999999
20
-16.524999999999999
10
26.837499999999999
20
-16.524999999999999
42
-0.41421356237309503
10
26.337499999999999
20
-16.024999999999999
10
26.337499999999999
20
-3.0249999999999999
42
-0.41421356237309503
0
LWPOLYLINE
5
101
100
AcDbEntity
8
0
100
AcDbPolyline
90
8
70
1
43
0.0
10
50.650000000000006
20
-2.5249999999999999
10
63.650000000000006
20
-2.5249999999999928
42
-0.41421356237309503
10
64.150000000000006
20
-3.0249999999999999
10
64.150000000000006
20
-16.024999999999999
42
-0.41421356237309503
10
63.650000000000006
20
-16.524999999999999
10
50.650000000000006
20
-16.524999999999999
42
-0.41421356237309503
10
50.150000000000006
20
-16.024999999999999
10
50.150000000000006
20
-3.0249999999999999
42
-0.41421356237309503
0
LWPOLYLINE
5
102
100
AcDbEntity
8
0
100
AcDbPolyline
90
8
70
1
43
0.0
10
69.700000000000003
20
-2.5249999999999999
10
82.700000000000017
20
-2.5250000000000106
42
-0.41421356237309503
10
83.200000000000003
20
-3.0249999999999999
10
83.200000000000003
20
-16.024999999999999
42
-0.41421356237309503
10
82.700000000000017
20
-16.524999999999999
10
69.700000000000003
20
-16.524999999999999
42
-0.41421356237309503
10
69.200000000000003
20
-16.024999999999999
10
69.200000000000003
20
-3.0249999999999999
42
-0.41421356237309503
0
LWPOLYLINE
5
103
100
AcDbEntity
8
0
100
AcDbPolyline
90
8
70
1
43
0.0
10
88.75
20
-2.5249999999999999
10
101.75
20
-2.5249999999999928
42
-0.41421356237309503
10
102.25000000000001
20
-3.0249999999999999
10
102.25000000000001
20
-16.024999999999999
42
-0.41421356237309503
10
101.75
20
-16.524999999999999
10
88.75
20
-16.524999999999991
42
-0.41421356237309503
10
88.250000000000014
20
-16.024999999999999
10
88.25
20
-3.0249999999999999
42
-0.41421356237309503
0
LWPOLYLINE
5
104
100
AcDbEntity
8
0
100
AcDbPolyline
90
8
70
1
43
0.0
10
107.80000000000001
20
-2.5249999999999999
10
120.8
20
-2.5249999999999928
42
-0.41421356237309503
10
121.30000000000001
20
-3.0249999999999999
10
121.29999999999998
20
-16.024999999999999
42
-0.41421356237309503
10
120.8
20
-16.524999999999999
10
107.80000000000001
20
-16.525000000000006
42
-0.41421356237309503
10
107.30000000000001
20
-16.024999999999999
10
107.30000000000001
20
-3.0249999999999999
42
-0.41421356237309503
0
LWPOLYLINE
5
105
100
AcDbEntity
8
0
100
AcDbPolyline
90
8
70
1
43
0.0
10
131.61250000000001
20
-2.5249999999999999
10
144.61250000000001
20
-2.5249999999999928
42
-0.41421356237309503
10
145.11250000000001
20
-3.0249999999999999
10
145.11250000000001
20
-16.024999999999999
42
-0.41421356237309503
10
144.61250000000001
20
-16.524999999999999
10
131.61250000000001
20
-16.525000000000006
42
-0.41421356237309503
10
131.11250000000001
20
-16.024999999999999
10
131.11250000000001
20
-3.0249999999999999
42
-0.41421356237309503
0
LWPOLYLINE
5
106
100
AcDbEntity
8
0
100
AcDbPolyline
90
8
70
1
43
0.0
10
150.66249999999999
20
-2.5249999999999999
10
163.66250000000002
20
-2.5249999999999928
42
-0.41421356237309503
10
164.16250000000002
20
-3.0249999999999999
10
164.16250000000002
20
-16.024999999999999
42
-0.41421356237309503
10
163.66250000000002
20
-16.524999999999999
10
150.66249999999999
20
-16.525000000000006
42
-0.41421356237309503
10
150.16249999999999
20
-16.024999999999999
10
150.16249999999999
20
-3.0249999999999999
42
-0.41421356237309503
0
LWPOLYLINE
5
107
100
AcDbEntity
8
0
100
AcDbPolyline
90
8
70
1
43
0.0
10
169.71250000000001
20
-2.5249999999999999
10
182.71250000000003
20
-2.5249999999999928
42
-0.41421356237309503
10
183.21250000000003
20
-3.0249999999999999
10
183.21250000000003
20
-16.024999999999999
42
-0.41421356237309503
10
182.71250000000003
20
-16.524999999999999
10
169.71250000000001
20
-16.525000000000006
42
-0.41421356237309503
10
169.21250000000001
20
-16.024999999999999
10
169.21250000000001
20
-3.0249999999999999
42
-0.41421356237309503
0
LWPOLYLINE
5
108
100
AcDbEntity
8
0
100
AcDbPolyline
90
8
70
1
43
0.0
10
188.76249999999999
20
-2.5249999999999999
10
201.76249999999999
20
-2.5249999999999928
42
-0.41421356237309503
10
202.26249999999999
20
-3.0249999999999999
10
202.26249999999999
20
-16.024999999999999
42
-0.41421356237309503
10
201.76249999999999
20
-16.524999999999999
10
188.76249999999999
20
-16.525000000000006
42
-0.41421356237309503
10
188.26249999999999
20
-16.024999999999999
10
188.26249999999999
20
-3.0249999999999999
42
-0.41421356237309503
0
LWPOLYLINE
5
109
100
AcDbEntity
8
0
100
AcDbPolyline
90
8
70
1
43
0.0
10
212.57499999999999
20
-2.5249999999999999
10
225.57500000000002
20
-2.5249999999999928
42
-0.41421356237309503
10
226.07500000000002
20
-3.0249999999999999
10
226.07500000000002
20
-16.024999999999999
42
-0.41421356237309503
10
225.57500000000002
20
-16.524999999999999
10
212.57499999999999
20
-16.525000000000006
42
-0.41421356237309503
10
212.07499999999999
20
-16.024999999999999
10
212.07499999999999
20
-3.0249999999999999
42
-0.41421356237309503
0
LWPOLYLINE
5
110
100
AcDbEntity
8
0
100
AcDbPolyline
90
8
70
1
43
0.0
10
231.625
20
-2.5249999999999999
10
244.62500000000003
20
-2.5249999999999928
42
-0.41421356237309503
10
245.12500000000003
20
-3.0249999999999999
10
245.12500000000003
20
-16.024999999999999
42
-0.41421356237309503
10
244.62500000000003
20
-16.524999999999999
10
231.625
20
-16.525000000000006
42
-0.41421356237309503
10
231.125
20
-16.024999999999999
10
231.125
20
-3.0249999999999999
42
-0.41421356237309503
0
LWPOLYLINE
5
111
100
AcDbEntity
8
0
100
AcDbPolyline
90
8
70
1
43
0.0
10
250.67500000000001
20
-2.5249999999999999
10
263.67500000000001
20
-2.5249999999999928
42
-0.41421356237309503
10
264.17500000000007
20
-3.0249999999999999
10
264.17500000000007
20
-16.024999999999999
42
-0.41421356237309503
10
263.67500000000001
20
-16.524999999999999
10
250.67500000000001
20
-16.525000000000006
42
-0.41421356237309503
10
250.17500000000001
20
-16.024999999999999
10
250.17500000000001
20
-3.0249999999999999
42
-0.41421356237309503
0
LWPOLYLINE
5
112
100
AcDbEntity
8
0
100
AcDbPolyline
90
8
70
1
43
0.0
10
269.72500000000002
20
-2.5249999999999999
10
282.72500000000002
20
-2.5249999999999928
42
-0.41421356237309503
10
283.22500000000002
20
-3.0249999999999999
10
283.22500000000002
20
-16.024999999999999
42
-0.41421356237309503
10
282.72500000000002
20
-16.524999999999999
10
269.72500000000002
20
-16.525000000000006
42
-0.41421356237309503
10
269.22500000000002
20
-16.024999999999999
10
269.22500000000002
20
-3.0249999999999999
42
-0.41421356237309503
0
LWPOLYLINE
5
113
100
AcDbEntity
8
0
100
AcDbPolyline
90
8
70
1
43
0.0
10
31.600000000000001
20
-26.337499999999999
10
44.600000000000001
20
-26.337499999999991
42
-0.41421356237309503
10
45.100000000000009
20
-26.837499999999999
10
45.099999999999994
20
-39.837499999999999
42
-0.41421356237309503
10
44.600000000000001
20
-40.337500000000006
10
31.600000000000001
20
-40.337499999999991
42
-0.41421356237309503
10
31.100000000000001
20
-39.837499999999999
10
31.100000000000001
20
-26.837499999999999
42
-0.41421356237309503
0
LWPOLYLINE
5
114
100
AcDbEntity
8
0
100
AcDbPolyline
90
8
70
1
43
0.0
10
55.412500000000009
20
-26.337499999999999
10
68.412499999999994
20
-26.337499999999999
42
-0.41421356237309503
10
68.912499999999994
20
-26.837499999999999
10
68.912499999999994
20
-39.837499999999999
42
-0.41421356237309503
10
68.412499999999994
20
-40.337500000000006
10
55.412500000000009
20
-40.337499999999991
42
-0.41421356237309503
10
54.912500000000009
20
-39.837499999999999
10
54.912500000000009
20
-26.837499999999999
42
-0.41421356237309503
0
LWPOLYLINE
5
115
100
AcDbEntity
8
0
100
AcDbPolyline
90
8
70
1
43
0.0
10
74.462500000000006
20
-26.337499999999999
10
87.46250000000002
20
-26.337500000000009
42
-0.41421356237309503
10
87.962500000000006
20
-26.837499999999999
10
87.96250000000002
20
-39.837499999999999
42
-0.41421356237309503
10
87.46250000000002
20
-40.337500000000006
10
74.462500000000006
20
-40.337499999999991
42
-0.41421356237309503
10
73.962500000000006
20
-39.837499999999999
10
73.962500000000006
20
-26.837499999999999
42
-0.41421356237309503
0
LWPOLYLINE
5
116
100
AcDbEntity
8
0
100
AcDbPolyline
90
8
70
1
43
0.0
10
93.512500000000003
20
-26.337499999999999
10
106.51250000000002
20
-26.337499999999991
42
-0.41421356237309503
10
107.01250000000002
20
-26.837499999999999
10
107.01250000000002
20
-39.837499999999999
42
-0.41421356237309503
10
106.51250000000002
20
-40.337500000000006
10
93.512500000000003
20
-40.337499999999991
42
-0.41421356237309503
10
93.012500000000017
20
-39.837499999999999
10
93.012499999999989
20
-26.837499999999999
42
-0.41421356237309503
0
LWPOLYLINE
5
117
100
AcDbEntity
8
0
100
AcDbPolyline
90
8
70
1
43
0.0
10
112.56250000000001
20
-26.337499999999999
10
125.5625
20
-26.337499999999991
42
-0.41421356237309503
10
126.06250000000001
20
-26.837499999999999
10
126.06250000000001
20
-39.837499999999999
42
-0.41421356237309503
10
125.5625
20
-40.337500000000006
10
112.56250000000001
20
-40.337500000000013
42
-0.41421356237309503
10
112.0625
20
-39.837499999999999
10
112.0625
20
-26.837499999999999
42
-0.41421356237309503
0
LWPOLYLINE
5
118
100
AcDbEntity
8
0
100
AcDbPolyline
90
8
70
1
43
0.0
10
131.61250000000001
20
-26.337499999999999
10
144.61250000000001
20
-26.337499999999991
42
-0.41421356237309503
10
145.11250000000001
20
-26.837499999999999
10
145.11250000000001
20
-39.837499999999999
42
-0.41421356237309503
10
144.61250000000001
20
-40.337500000000006
10
131.61250000000001
20
-40.337500000000013
42
-0.41421356237309503
10
131.11250000000001
20
-39.837499999999999
10
131.11250000000001
20
-26.837499999999999
42
-0.41421356237309503
0
LWPOLYLINE
5
119
100
AcDbEntity
8
0
100
AcDbPolyline
90
8
70
1
43
0.0
10
150.66249999999999
20
-26.337499999999999
10
163.66250000000002
20
-26.337499999999991
42
-0.41421356237309503
10
164.16250000000002
20
-26.837499999999999
10
164.16250000000002
20
-39.837499999999999
42
-0.41421356237309503
10
163.66250000000002
20
-40.337500000000006
10
150.66249999999999
20
-40.337500000000013
42
-0.41421356237309503
10
150.16249999999999
20
-39.837499999999999
10
150.16249999999999
20
-26.837499999999999
42
-0.41421356237309503
0
LWPOLYLINE
5
120
100
AcDbEntity
8
0
100
AcDbPolyline
90
8
70
1
43
0.0
10
169.71250000000001
20
-26.337499999999999
10
182.71250000000003
20
-26.337499999999991
42
-0.41421356237309503
10
183.21250000000003
20
-26.837499999999999
10
183.21250000000003
20
-39.837499999999999
42
-0.41421356237309503
10
182.71250000000003
20
-40.337500000000006
10
169.71250000000001
20
-40.337500000000013
42
-0.41421356237309503
10
169.21250000000001
20
-39.837499999999999
10
169.21250000000001
20
-26.837499999999999
42
-0.41421356237309503
0
LWPOLYLINE
5
121
100
AcDbEntity
8
0
100
AcDbPolyline
90
8
70
1
43
0.0
10
188.76249999999999
20
-26.337499999999999
10
201.76249999999999
20
-26.337499999999991
42
-0.41421356237309503
10
202.26249999999999
20
-26.837499999999999
10
202.26249999999999
20
-39.837499999999999
42
-0.41421356237309503
10
201.76249999999999
20
-40.337500000000006
10
188.76249999999999
20
-40.337500000000013
42
-0.41421356237309503
10
188.26249999999999
20
-39.837499999999999
10
188.26249999999999
20
-26.837499999999999
42
-0.41421356237309503
0
LWPOLYLINE
5
122
100
AcDbEntity
8
0
100
AcDbPolyline
90
8
70
1
43
0.0
10
207.8125
20
-26.337499999999999
10
220.8125
20
-26.337499999999991
42
-0.41421356237309503
10
221.3125
20
-26.837499999999999
10
221.3125
20
-39.837499999999999
42
-0.41421356237309503
10
220.8125
20
-40.337500000000006
10
207.8125
20
-40.337499999999977
42
-0.41421356237309503
10
207.31250000000003
20
-39.837499999999999
10
207.3125
20
-26.837499999999999
42
-0.41421356237309503
0
LWPOLYLINE
5
123
100
AcDbEntity
8
0
100
AcDbPolyline
90
8
70
1
43
0.0
10
226.86250000000001
20
-26.337499999999999
10
239.86250000000001
20
-26.337499999999991
42
-0.41421356237309503
10
240.36250000000001
20
-26.837499999999999
10
240.36250000000001
20
-39.837499999999999
42
-0.41421356237309503
10
239.86250000000001
20
-40.337500000000006
10
226.86250000000001
20
-40.337499999999977
42
-0.41421356237309503
10
226.36250000000004
20
-39.837499999999999
10
226.36250000000001
20
-26.837499999999999
42
-0.41421356237309503
0
LWPOLYLINE
5
124
100
AcDbEntity
8
0
100
AcDbPolyline
90
8
70
1
43
0.0
10
245.91250000000002
20
-26.337499999999999
10
258.91250000000002
20
-26.337499999999991
42
-0.41421356237309503
10
259.41250000000002
20
-26.837499999999999
10
259.41250000000002
20
-39.837499999999999
42
-0.41421356237309503
10
258.91250000000002
20
-40.337500000000006
10
245.91250000000002
20
-40.337500000000013
42
-0.41421356237309503
10
245.41250000000002
20
-39.837499999999999
10
245.41250000000002
20
-26.837499999999999
42
-0.41421356237309503
0
LWPOLYLINE
5
125
100
AcDbEntity
8
0
100
AcDbPolyline
90
8
70
1
43
0.0
10
269.72500000000002
20
-26.337499999999999
10
282.72500000000002
20
-26.337499999999991
42
-0.41421356237309503
10
283.22500000000002
20
-26.837499999999999
10
283.22500000000002
20
-39.837499999999999
42
-0.41421356237309503
10
282.72500000000002
20
-40.337500000000006
10
269.72500000000002
20
-40.337500000000013
42
-0.41421356237309503
10
269.22500000000002
20
-39.837499999999999
10
269.22500000000002
20
-26.837499999999999
42
-0.41421356237309503
0
LWPOLYLINE
5
126
100
AcDbEntity
8
0
100
AcDbPolyline
90
8
70
1
43
0.0
10
3.0249999999999999
20
-45.387500000000003
10
16.024999999999999
20
-45.387500000000003
42
-0.41421356237309503
10
16.524999999999999
20
-45.887500000000003
10
16.524999999999999
20
-58.88750000000001
42
-0.41421356237309503
10
16.024999999999999
20
-59.387500000000003
10
3.0249999999999999
20
-59.387500000000003
42
-0.41421356237309503
10
2.5249999999999999
20
-58.88750000000001
10
2.5250000000000017
20
-45.887500000000003
42
-0.41421356237309503
0
LWPOLYLINE
5
127
100
AcDbEntity
8
0
100
AcDbPolyline
90
8
70
1
43
0.0
10
29.21875
20
-45.387500000000003
10
42.21875
20
-45.387499999999996
42
-0.41421356237309503
10
42.718750000000007
20
-45.887500000000003
10
42.71875
20
-58.88750000000001
42
-0.41421356237309503
10
42.21875
20
-59.387500000000003
10
29.21875
20
-59.387500000000003
42
-0.41421356237309503
10
28.71875
20
-58.88750000000001
10
28.71875
20
-45.887500000000003
42
-0.41421356237309503
0
LWPOLYLINE
5
128
100
AcDbEntity
8
0
100
AcDbPolyline
90
8
70
1
43
0.0
10
60.174999999999997
20
-45.387500000000003
10
73.174999999999997
20
-45.387500000000003
42
-0.41421356237309503
10
73.674999999999997
20
-45.887500000000003
10
73.674999999999997
20
-58.88750000000001
42
-0.41421356237309503
10
73.174999999999997
20
-59.387500000000003
10
60.174999999999997
20
-59.387500000000003
42
-0.41421356237309503
10
59.675000000000004
20
-58.88750000000001
10
59.675000000000004
20
-45.887500000000003
42
-0.41421356237309503
0
LWPOLYLINE
5
129
100
AcDbEntity
8
0
100
AcDbPolyline
90
8
70
1
43
0.0
10
79.224999999999994
20
-45.387500000000003
10
92.224999999999994
20
-45.38750000000001
42
-0.41421356237309503
10
92.724999999999994
20
-45.887500000000003
10
92.725000000000009
20
-58.88750000000001
42
-0.41421356237309503
10
92.224999999999994
20
-59.387500000000003
10
79.224999999999994
20
-59.387500000000003
42
-0.41421356237309503
10
78.724999999999994
20
-58.88750000000001
10
78.724999999999994
20
-45.887500000000003
42
-0.41421356237309503
0
LWPOLYLINE
5
130
100
AcDbEntity
8
0
100
AcDbPolyline
90
8
70
1
43
0.0
10
98.275000000000006
20
-45.387500000000003
10
111.27500000000001
20
-45.387499999999996
42
-0.41421356237309503
10
111.77500000000002
20
-45.887500000000003
10
111.77500000000002
20
-58.88750000000001
42
-0.41421356237309503
10
111.27500000000001
20
-59.387500000000003
10
98.275000000000006
20
-59.387499999999996
42
-0.41421356237309503
10
97.77500000000002
20
-58.88750000000001
10
97.775000000000006
20
-45.887500000000003
42
-0.41421356237309503
0
LWPOLYLINE
5
131
100
AcDbEntity
8
0
100
AcDbPolyline
90
8
70
1
43
0.0
10
117.32500000000002
20
-45.387500000000003
10
130.32499999999999
20
-45.387499999999996
42
-0.41421356237309503
10
130.82499999999999
20
-45.887500000000003
10
130.82499999999999
20
-58.88750000000001
42
-0.41421356237309503
10
130.32499999999999
20
-59.387500000000003
10
117.32500000000002
20
-59.387500000000017
42
-0.41421356237309503
10
116.82500000000002
20
-58.88750000000001
10
116.82500000000002
20
-45.887500000000003
42
-0.41421356237309503
0
LWPOLYLINE
5
132
100
AcDbEntity
8
0
100
AcDbPolyline
90
8
70
1
43
0.0
10
136.375
20
-45.387500000000003
10
149.375
20
-45.387499999999996
42
-0.41421356237309503
10
149.875
20
-45.887500000000003
10
149.875
20
-58.88750000000001
42
-0.41421356237309503
10
149.375
20
-59.387500000000003
10
136.375
20
-59.387500000000017
42
-0.41421356237309503
10
135.875
20
-58.88750000000001
10
135.87500000000003
20
-45.887500000000003
42
-0.41421356237309503
0
LWPOLYLINE
5
133
100
AcDbEntity
8
0
100
AcDbPolyline
90
8
70
1
43
0.0
10
155.42500000000001
20
-45.387500000000003
10
168.42500000000001
20
-45.387499999999996
42
-0.41421356237309503
10
168.92500000000001
20
-45.887500000000003
10
168.92500000000001
20
-58.88750000000001
42
-0.41421356237309503
10
168.42500000000001
20
-59.387500000000003
10
155.42500000000001
20
-59.387500000000017
42
-0.41421356237309503
10
154.92500000000001
20
-58.88750000000001
10
154.92500000000004
20
-45.887500000000003
42
-0.41421356237309503
0
LWPOLYLINE
5
134
100
AcDbEntity
8
0
100
AcDbPolyline
90
8
70
1
43
0.0
10
174.47500000000002
20
-45.387500000000003
10
187.47499999999999
20
-45.387499999999996
42
-0.41421356237309503
10
187.97499999999999
20
-45.887500000000003
10
187.97499999999999
20
-58.88750000000001
42
-0.41421356237309503
10
187.47499999999999
20
-59.387500000000003
10
174.47500000000002
20
-59.387500000000017
42
-0.41421356237309503
10
173.97500000000002
20
-58.88750000000001
10
173.97500000000002
20
-45.887500000000003
42
-0.41421356237309503
0
LWPOLYLINE
5
135
100
AcDbEntity
8
0
100
AcDbPolyline
90
8
70
1
43
0.0
10
193.52500000000003
20
-45.387500000000003
10
206.52500000000003
20
-45.387500000000031
42
-0.41421356237309503
10
207.02500000000001
20
-45.887500000000003
10
207.02500000000003
20
-58.88750000000001
42
-0.41421356237309503
10
206.52500000000003
20
-59.387500000000003
10
193.52500000000003
20
-59.387500000000017
42
-0.41421356237309503
10
193.02500000000003
20
-58.88750000000001
10
193.02500000000003
20
-45.887500000000003
42
-0.41421356237309503
0
LWPOLYLINE
5
136
100
AcDbEntity
8
0
100
AcDbPolyline
90
8
70
1
43
0.0
10
212.57499999999999
20
-45.387500000000003
10
225.57500000000002
20
-45.387499999999996
42
-0.41421356237309503
10
226.07500000000002
20
-45.887500000000003
10
226.07500000000002
20
-58.88750000000001
42
-0.41421356237309503
10
225.57500000000002
20
-59.387500000000003
10
212.57499999999999
20
-59.387500000000017
42
-0.41421356237309503
10
212.07499999999999
20
-58.88750000000001
10
212.07499999999999
20
-45.887500000000003
42
-0.41421356237309503
0
LWPOLYLINE
5
137
100
AcDbEntity
8
0
100
AcDbPolyline
90
8
70
1
43
0.0
10
238.76875000000001
20
-45.387500000000003
10
251.76875000000001
20
-45.387499999999996
42
-0.41421356237309503
10
252.26875000000004
20
-45.887500000000003
10
252.26875000000004
20
-58.88750000000001
42
-0.41421356237309503
10
251.76875000000001
20
-59.387500000000003
10
238.76875000000001
20
-59.387500000000017
42
-0.41421356237309503
10
238.26875000000001
20
-58.88750000000001
10
238.26875000000001
20
-45.887500000000003
42
-0.41421356237309503
0
LWPOLYLINE
5
138
100
AcDbEntity
8
0
100
AcDbPolyline
90
8
70
1
43
0.0
10
269.72500000000002
20
-45.387500000000003
10
282.72500000000002
20
-45.387499999999996
42
-0.41421356237309503
10
283.22500000000002
20
-45.887500000000003
10
283.22500000000002
20
-58.88750000000001
42
-0.41421356237309503
10
282.72500000000002
20
-59.387500000000003
10
269.72500000000002
20
-59.387500000000017
42
-0.41421356237309503
10
269.22500000000002
20
-58.88750000000001
10
269.22500000000002
20
-45.887500000000003
42
-0.41421356237309503
0
LWPOLYLINE
5
139
100
AcDbEntity
8
0
100
AcDbPolyline
90
8
70
1
43
0.0
10
3.0249999999999999
20
-64.4375
10
16.024999999999999
20
-64.4375
42
-0.41421356237309503
10
16.524999999999999
20
-64.9375
10
16.524999999999999
20
-77.9375
42
-0.41421356237309503
10
16.024999999999999
20
-78.4375
10
3.0249999999999999
20
-78.4375
42
-0.41421356237309503
10
2.5249999999999999
20
-77.9375
10
2.5250000000000017
20
-64.9375
42
-0.41421356237309503
0
LWPOLYLINE
5
140
100
AcDbEntity
8
0
100
AcDbPolyline
90
8
70
1
43
0.0
10
38.743749999999999
20
-64.4375
10
51.743750000000006
20
-64.4375
42
-0.41421356237309503
10
52.243750000000006
20
-64.9375
10
52.243750000000006
20
-77.9375
42
-0.41421356237309503
10
51.743750000000006
20
-78.4375
10
38.743749999999999
20
-78.4375
42
-0.41421356237309503
10
38.243749999999999
20
-77.9375
10
38.243750000000006
20
-64.9375
42
-0.41421356237309503
0
LWPOLYLINE
5
141
100
AcDbEntity
8
0
100
AcDbPolyline
90
8
70
1
43
0.0
10
30.305750000000003
20
-65.4375
10
36.305750000000003
20
-65.4375
42
-0.41421356237309503
10
36.805750000000003
20
-65.9375
10
36.80575000000001
20
-79.9375
42
-0.41421356237309503
10
36.305750000000003
20
-80.437500000000014
10
30.305750000000003
20
-80.437500000000014
42
-0.41421356237309503
10
29.80575
20
-79.9375
10
29.805750000000003
20
-65.9375
42
-0.41421356237309503
0
LWPOLYLINE
5
142
100
AcDbEntity
8
0
100
AcDbPolyline
90
8
70
1
43
0.0
10
54.181750000000008
20
-65.4375
10
60.181750000000001
20
-65.4375
42
-0.41421356237309503
10
60.681750000000001
20
-65.9375
10
60.681750000000008
20
-79.9375
42
-0.41421356237309503
10
60.181750000000001
20
-80.437500000000014
10
54.181750000000008
20
-80.4375
42
-0.41421356237309503
10
53.681750000000008
20
-79.9375
10
53.681750000000008
20
-65.9375
42
-0.41421356237309503
0
LWPOLYLINE
5
143
100
AcDbEntity
8
0
100
AcDbPolyline
90
8
70
1
43
0.0
10
69.700000000000003
20
-64.4375
10
82.700000000000017
20
-64.437500000000014
42
-0.41421356237309503
10
83.200000000000003
20
-64.9375
10
83.200000000000003
20
-77.9375
42
-0.41421356237309503
10
82.700000000000017
20
-78.4375
10
69.700000000000003
20
-78.4375
42
-0.41421356237309503
10
69.200000000000003
20
-77.9375
10
69.200000000000003
20
-64.9375
42
-0.41421356237309503
0
LWPOLYLINE
5
144
100
AcDbEntity
8
0
100
AcDbPolyline
90
8
70
1
43
0.0
10
88.75
20
-64.4375
10
101.75
20
-64.4375
42
-0.41421356237309503
10
102.25000000000001
20
-64.9375
10
102.25000000000001
20
-77.9375
42
-0.41421356237309503
10
101.75
20
-78.4375
10
88.75
20
-78.437499999999986
42
-0.41421356237309503
10
88.250000000000014
20
-77.9375
10
88.25
20
-64.9375
42
-0.41421356237309503
0
LWPOLYLINE
5
145
100
AcDbEntity
8
0
100
AcDbPolyline
90
8
70
1
43
0.0
10
107.80000000000001
20
-64.4375
10
120.8
20
-64.4375
42
-0.41421356237309503
10
121.30000000000001
20
-64.9375
10
121.29999999999998
20
-77.9375
42
-0.41421356237309503
10
120.8
20
-78.4375
10
107.80000000000001
20
-78.437500000000014
42
-0.41421356237309503
10
107.30000000000001
20
-77.9375
10
107.30000000000001
20
-64.9375
42
-0.41421356237309503
0
LWPOLYLINE
5
146
100
AcDbEntity
8
0
100
AcDbPolyline
90
8
70
1
43
0.0
10
126.85000000000001
20
-64.4375
10
139.84999999999999
20
-64.4375
42
-0.41421356237309503
10
140.34999999999999
20
-64.9375
10
140.34999999999999
20
-77.9375
42
-0.41421356237309503
10
139.84999999999999
20
-78.4375
10
126.85000000000001
20
-78.437500000000014
42
-0.41421356237309503
10
126.34999999999999
20
-77.9375
10
126.35000000000002
20
-64.9375
42
-0.41421356237309503
0
LWPOLYLINE
5
147
100
AcDbEntity
8
0
100
AcDbPolyline
90
8
70
1
43
0.0
10
145.90000000000001
20
-64.4375
10
158.90000000000001
20
-64.4375
42
-0.41421356237309503
10
159.40000000000001
20
-64.9375
10
159.40000000000001
20
-77.9375
42
-0.41421356237309503
10
158.90000000000001
20
-78.4375
10
145.90000000000001
20
-78.437500000000014
42
-0.41421356237309503
10
145.40000000000001
20
-77.9375
10
145.40000000000003
20
-64.9375
42
-0.41421356237309503
0
LWPOLYLINE
5
148
100
AcDbEntity
8
0
100
AcDbPolyline
90
8
70
1
43
0.0
10
164.95000000000002
20
-64.4375
10
177.94999999999999
20
-64.4375
42
-0.41421356237309503
10
178.44999999999999
20
-64.9375
10
178.44999999999999
20
-77.9375
42
-0.41421356237309503
10
177.94999999999999
20
-78.4375
10
164.95000000000002
20
-78.437500000000014
42
-0.41421356237309503
10
164.44999999999999
20
-77.9375
10
164.44999999999999
20
-64.9375
42
-0.41421356237309503
0
LWPOLYLINE
5
149
100
AcDbEntity
8
0
100
AcDbPolyline
90
8
70
1
43
0.0
10
184.00000000000003
20
-64.4375
10
197.00000000000003
20
-64.437500000000028
42
-0.41421356237309503
10
197.5
20
-64.9375
10
197.50000000000003
20
-77.9375
42
-0.41421356237309503
10
197.00000000000003
20
-78.4375
10
184.00000000000003
20
-78.437500000000014
42
-0.41421356237309503
10
183.5
20
-77.9375
10
183.5
20
-64.9375
42
-0.41421356237309503
0
LWPOLYLINE
5
150
100
AcDbEntity
8
0
100
AcDbPolyline
90
8
70
1
43
0.0
10
203.05000000000004
20
-64.4375
10
216.05000000000004
20
-64.437500000000028
42
-0.41421356237309503
10
216.55000000000001
20
-64.9375
10
216.55000000000004
20
-77.9375
42
-0.41421356237309503
10
216.05000000000004
20
-78.4375
10
203.05000000000004
20
-78.437500000000014
42
-0.41421356237309503
10
202.55000000000001
20
-77.9375
10
202.55000000000001
20
-64.9375
42
-0.41421356237309503
0
LWPOLYLINE
5
151
100
AcDbEntity
8
0
100
AcDbPolyline
90
8
70
1
43
0.0
10
222.10000000000002
20
-64.4375
10
235.10000000000002
20
-64.4375
42
-0.41421356237309503
10
235.60000000000002
20
-64.9375
10
235.60000000000002
20
-77.9375
42
-0.41421356237309503
10
235.10000000000002
20
-78.4375
10
222.10000000000002
20
-78.437500000000014
42
-0.41421356237309503
10
221.59999999999999
20
-77.9375
10
221.59999999999999
20
-64.9375
42
-0.41421356237309503
0
LWPOLYLINE
5
152
100
AcDbEntity
8
0
100
AcDbPolyline
90
8
70
1
43
0.0
10
269.72500000000002
20
-64.4375
10
282.72500000000002
20
-64.4375
42
-0.41421356237309503
10
283.22500000000002
20
-64.9375
10
283.22500000000002
20
-77.9375
42
-0.41421356237309503
10
282.72500000000002
20
-78.4375
10
269.72500000000002
20
-78.437500000000014
42
-0.41421356237309503
10
269.22500000000002
20
-77.9375
10
269.22500000000002
20
-64.9375
42
-0.41421356237309503
0
LWPOLYLINE
5
153
100
AcDbEntity
8
0
100
AcDbPolyline
90
8
70
1
43
0.0
10
3.0249999999999999
20
-83.487500000000011
10
16.024999999999999
20
-83.487499999999983
42
-0.41421356237309503
10
16.524999999999999
20
-83.987499999999997
10
16.525000000000006
20
-96.987500000000011
42
-0.41421356237309503
10
16.024999999999999
20
-97.487500000000011
10
3.0249999999999999
20
-97.487500000000011
42
-0.41421356237309503
10
2.5249999999999999
20
-96.987500000000011
10
2.5250000000000106
20
-83.987499999999997
42
-0.41421356237309503
0
LWPOLYLINE
5
154
100
AcDbEntity
8
0
100
AcDbPolyline
90
8
70
1
43
0.0
10
31.600000000000001
20
-83.487500000000011
10
44.600000000000001
20
-83.487499999999983
42
-0.41421356237309503
10
45.100000000000009
20
-83.987499999999997
10
45.100000000000009
20
-96.987500000000011
42
-0.41421356237309503
10
44.600000000000001
20
-97.487500000000011
10
31.600000000000001
20
-97.487500000000011
42
-0.41421356237309503
10
31.100000000000001
20
-96.987500000000011
10
31.100000000000012
20
-83.987499999999997
42
-0.41421356237309503
0
LWPOLYLINE
5
155
100
AcDbEntity
8
0
100
AcDbPolyline
90
8
70
1
43
0.0
10
55.412500000000009
20
-83.487500000000011
10
68.412499999999994
20
-83.487499999999983
42
-0.41421356237309503
10
68.912499999999994
20
-83.987499999999997
10
68.912500000000009
20
-96.987500000000011
42
-0.41421356237309503
10
68.412499999999994
20
-97.487500000000011
10
55.412500000000009
20
-97.487500000000011
42
-0.41421356237309503
10
54.912500000000009
20
-96.987500000000011
10
54.912500000000016
20
-83.987499999999997
42
-0.41421356237309503
0
LWPOLYLINE
5
156
100
AcDbEntity
8
0
100
AcDbPolyline
90
8
70
1
43
0.0
10
81.606250000000017
20
-83.487500000000011
10
94.606250000000003
20
-83.487499999999983
42
-0.41421356237309503
10
95.106250000000017
20
-83.987499999999997
10
95.106250000000017
20
-96.987500000000011
42
-0.41421356237309503
10
94.606250000000003
20
-97.487500000000011
10
81.606250000000017
20
-97.487500000000011
42
-0.41421356237309503
10
81.106250000000003
20
-96.987500000000011
10
81.106250000000017
20
-83.987499999999997
42
-0.41421356237309503
0
LWPOLYLINE
5
157
100
AcDbEntity
8
0
100
AcDbPolyline
90
8
70
1
43
0.0
10
114.94374999999999
20
-83.487500000000011
10
127.94375000000001
20
-83.487500000000011
42
-0.41421356237309503
10
128.44374999999999
20
-83.987499999999997
10
128.44375000000002
20
-96.987500000000011
42
-0.41421356237309503
10
127.94375000000001
20
-97.487500000000011
10
114.94374999999999
20
-97.487499999999997
42
-0.41421356237309503
10
114.44375000000001
20
-96.987500000000011
10
114.44375000000001
20
-83.987499999999997
42
-0.41421356237309503
0
LWPOLYLINE
5
158
100
AcDbEntity
8
0
100
AcDbPolyline
90
8
70
1
43
0.0
10
106.50575000000002
20
-84.487500000000011
10
112.50575000000001
20
-84.487499999999983
42
-0.41421356237309503
10
113.00575000000002
20
-84.987499999999997
10
113.00575000000002
20
-98.987499999999997
42
-0.41421356237309503
10
112.50575000000001
20
-99.487500000000011
10
106.50575000000002
20
-99.487500000000011
42
-0.41421356237309503
10
106.00575000000001
20
-98.987499999999997
10
106.00575000000003
20
-84.987499999999997
42
-0.41421356237309503
0
LWPOLYLINE
5
159
100
AcDbEntity
8
0
100
AcDbPolyline
90
8
70
1
43
0.0
10
130.38175000000001
20
-84.487500000000011
10
136.38175000000001
20
-84.487500000000011
42
-0.41421356237309503
10
136.88175000000001
20
-84.987499999999997
10
136.88175000000004
20
-98.987499999999997
42
-0.41421356237309503
10
136.38175000000001
20
-99.487500000000011
10
130.38175000000001
20
-99.487500000000011
42
-0.41421356237309503
10
129.88175000000001
20
-98.987499999999997
10
129.88175000000004
20
-84.987499999999997
42
-0.41421356237309503
0
LWPOLYLINE
5
160
100
AcDbEntity
8
0
100
AcDbPolyline
90
8
70
1
43
0.0
10
162.56875000000002
20
-83.487500000000011
10
175.56875000000002
20
-83.487500000000026
42
-0.41421356237309503
10
176.06874999999999
20
-83.987499999999997
10
176.06875000000002
20
-96.987500000000011
42
-0.41421356237309503
10
175.56875000000002
20
-97.487500000000011
10
162.56875000000002
20
-97.487500000000011
42
-0.41421356237309503
10
162.06874999999999
20
-96.987500000000011
10
162.06875000000002
20
-83.987499999999997
42
-0.41421356237309503
0
LWPOLYLINE
5
161
100
AcDbEntity
8
0
100
AcDbPolyline
90
8
70
1
43
0.0
10
154.13075000000001
20
-84.487500000000011
10
160.13075000000001
20
-84.487499999999983
42
-0.41421356237309503
10
160.63075000000001
20
-84.987499999999997
10
160.63075000000001
20
-98.987499999999997
42
-0.41421356237309503
10
160.13075000000001
20
-99.487500000000011
10
154.13075000000001
20
-99.487499999999983
42
-0.41421356237309503
10
153.63075000000003
20
-98.987499999999997
10
153.63075000000003
20
-84.987499999999997
42
-0.41421356237309503
0
LWPOLYLINE
5
162
100
AcDbEntity
8
0
100
AcDbPolyline
90
8
70
1
43
0.0
10
178.00675000000001
20
-84.487500000000011
10
184.00675000000004
20
-84.487500000000026
42
-0.41421356237309503
10
184.50675000000001
20
-84.987499999999997
10
184.50675000000004
20
-98.987499999999997
42
-0.41421356237309503
10
184.00675000000004
20
-99.487500000000011
10
178.00675000000001
20
-99.487500000000011
42
-0.41421356237309503
10
177.50675000000001
20
-98.987499999999997
10
177.50675000000001
20
-84.987499999999997
42
-0.41421356237309503
0
LWPOLYLINE
5
163
100
AcDbEntity
8
0
100
AcDbPolyline
90
8
70
1
43
0.0
10
200.66874999999999
20
-83.487500000000011
10
213.66874999999999
20
-83.487499999999983
42
-0.41421356237309503
10
214.16875000000002
20
-83.987499999999997
10
214.16875000000002
20
-96.987500000000011
42
-0.41421356237309503
10
213.66874999999999
20
-97.487500000000011
10
200.66874999999999
20
-97.487500000000011
42
-0.41421356237309503
10
200.16874999999999
20
-96.987500000000011
10
200.16874999999999
20
-83.987499999999997
42
-0.41421356237309503
0
LWPOLYLINE
5
164
100
AcDbEntity
8
0
100
AcDbPolyline
90
8
70
1
43
0.0
10
226.86250000000001
20
-88.250000000000014
10
239.86250000000001
20
-88.25
42
-0.41421356237309503
10
240.36250000000001
20
-88.75
10
240.36250000000001
20
-101.75
42
-0.41421356237309503
10
239.86250000000001
20
-102.25000000000001
10
226.86250000000001
20
-102.24999999999997
42
-0.41421356237309503
10
226.36250000000004
20
-101.75
10
226.36250000000004
20
-88.75
42
-0.41421356237309503
0
LWPOLYLINE
5
165
100
AcDbEntity
8
0
100
AcDbPolyline
90
8
70
1
43
0.0
10
245.91250000000002
20
-88.250000000000014
10
258.91250000000002
20
-88.25
42
-0.41421356237309503
10
259.41250000000002
20
-88.75
10
259.41250000000002
20
-101.75
42
-0.41421356237309503
10
258.91250000000002
20
-102.25000000000001
10
245.91250000000002
20
-102.25000000000001
42
-0.41421356237309503
10
245.41250000000002
20
-101.75
10
245.41250000000005
20
-88.75
42
-0.41421356237309503
0
LWPOLYLINE
5
166
100
AcDbEntity
8
0
100
AcDbPolyline
90
8
70
1
43
0.0
10
264.96249999999998
20
-88.250000000000014
10
277.96249999999998
20
-88.250000000000028
42
-0.41421356237309503
10
278.46249999999998
20
-88.75
10
278.46250000000003
20
-101.75
42
-0.41421356237309503
10
277.96249999999998
20
-102.25000000000001
10
264.96249999999998
20
-102.25000000000001
42
-0.41421356237309503
10
264.46249999999998
20
-101.75
10
264.46249999999998
20
-88.75
42
-0.41421356237309503
0
LWPOLYLINE
5
167
100
AcDbEntity
8
0
100
AcDbPolyline
90
8
70
1
43
0.0
10
245.91250000000002
20
-69.200000000000003
10
258.91250000000002
20
-69.200000000000003
42
-0.41421356237309503
10
259.41250000000002
20
-69.700000000000003
10
259.41250000000002
20
-82.700000000000017
42
-0.41421356237309503
10
258.91250000000002
20
-83.200000000000003
10
245.91250000000002
20
-83.200000000000017
42
-0.41421356237309503
10
245.41250000000002
20
-82.700000000000017
10
245.41250000000002
20
-69.700000000000003
42
-0.41421356237309503
0
ARC
5
168
100
AcDbEntity
8
0
100
AcDbCircle
10
284.50000000000006
20
-1.2499999999999787
30
0
40
1.2499999999999645
210
0
220
0
230
1
100
AcDbArc
50
0
51
90.000000000002615
0
ARC
5
169
100
AcDbEntity
8
0
100
AcDbCircle
10
1.2499999999999982
20
-1.2499999999999987
30
0
40
1.2499999999999987
210
0
220
-0
230
1
100
AcDbArc
50
89.999999999999929
51
180
0
ARC
5
170
100
AcDbEntity
8
0
100
AcDbCircle
10
1.2499999999999876
20
-103.52500000000003
30
0
40
1.2499999999999876
210
0
220
0
230
1
100
AcDbArc
50
180
51
270.00000000000057
0
ARC
5
171
100
AcDbEntity
8
0
100
AcDbCircle
10
284.50000000000006
20
-103.52500000000003
30
0
40
1.2499999999999822
210
0
220
0
230
1
100
AcDbArc
50
-90.000000000002586
51
0
0
LINE
5
172
100
AcDbEntity
8
0
100
AcDbLine
10
290.75
20
-52.387500000000003
30
0
11
290.75
21
-7.887499999999994
31
0
0
LINE
5
173
100
AcDbEntity
8
0
100
AcDbLine
10
290.75
20
-52.387500000000003
30
0
11
290.75
21
-96.887499999999989
31
0
0
LINE
5
174
100
AcDbEntity
8
0
100
AcDbLine
10
290.25
20
-97.387499999999989
30
0
11
287.25000000000006
21
-97.387499999999989
31
0
0
LINE
5
175
100
AcDbEntity
8
0
100
AcDbLine
10
290.25
20
-7.3875000000000046
30
0
11
287.25000000000006
21
-7.3875000000000126
31
0
0
LINE
5
176
100
AcDbEntity
8
0
100
AcDbLine
10
286.75000000000006
20
-96.887499999999989
30
0
11
286.75000000000006
21
-75.387500000000003
31
0
0
LINE
5
177
100
AcDbEntity
8
0
100
AcDbLine
10
285.75
20
-103.52500000000001
30
0
11
285.75
21
-75.387499999999989
31
0
0
LINE
5
178
100
AcDbEntity
8
0
100
AcDbLine
10
285.75
20
-29.387500000000006
30
0
11
285.75
21
-1.25
31
0
0
LINE
5
179
100
AcDbEntity
8
0
100
AcDbLine
10
286.75000000000006
20
-7.8875000000000046
30
0
11
286.75000000000006
21
-29.387500000000006
31
0
0
LINE
5
180
100
AcDbEntity
8
0
100
AcDbLine
10
-4.5
20
-7.3875000000000046
30
0
11
-1.4999999999999996
21
-7.3875000000000046
31
0
0
LINE
5
181
100
AcDbEntity
8
0
100
AcDbLine
10
-0.99999999999999978
20
-7.8875000000000046
30
0
11
-0.99999999999999978
21
-29.387500000000006
31
0
0
LINE
5
182
100
AcDbEntity
8
0
100
AcDbLine
10
-5
20
-52.387500000000003
30
0
11
-4.9999999999999991
21
-7.887499999999994
31
0
0
LINE
5
183
100
AcDbEntity
8
0
100
AcDbLine
10
-5
20
-52.387500000000003
30
0
11
-5
21
-96.887499999999989
31
0
0
LINE
5
184
100
AcDbEntity
8
0
100
AcDbLine
10
-4.5
20
-97.387499999999989
30
0
11
-1.4999999999999996
21
-97.387499999999989
31
0
0
LINE
5
185
100
AcDbEntity
8
0
100
AcDbLine
10
-0.99999999999999978
20
-96.887499999999989
30
0
11
-0.99999999999999978
21
-75.387500000000003
31
0
0
LINE
5
186
100
AcDbEntity
8
0
100
AcDbLine
10
0
20
-103.52500000000001
30
0
11
-6.9388939039072284e-17
21
-75.387499999999989
31
0
0
LINE
5
187
100
AcDbEntity
8
0
100
AcDbLine
10
-2.0816681711721685e-16
20
-29.387500000000006
30
0
11
-2.7755575615628914e-16
21
-1.25
31
0
0
LINE
5
188
100
AcDbEntity
8
0
100
AcDbLine
10
214.31250000000006
20
4.9999999999999929
30
0
11
169.81250000000006
21
4.9999999999999858
31
0
0
LINE
5
189
100
AcDbEntity
8
0
100
AcDbLine
10
169.31250000000006
20
4.4999999999999929
30
0
11
169.31250000000006
21
1.4999999999999925
31
0
0
LINE
5
190
100
AcDbEntity
8
0
100
AcDbLine
10
169.81250000000006
20
0.99999999999999256
30
0
11
191.31250000000006
21
0.99999999999998623
31
0
0
LINE
5
191
100
AcDbEntity
8
0
100
AcDbLine
10
214.31250000000006
20
4.9999999999999929
30
0
11
258.81250000000006
21
4.9999999999999929
31
0
0
LINE
5
192
100
AcDbEntity
8
0
100
AcDbLine
10
259.31250000000006
20
4.4999999999999929
30
0
11
259.31250000000006
21
1.4999999999999929
31
0
0
LINE
5
193
100
AcDbEntity
8
0
100
AcDbLine
10
258.81250000000006
20
0.99999999999999922
30
0
11
237.31250000000006
21
0.99999999999999256
31
0
0
LINE
5
194
100
AcDbEntity
8
0
100
AcDbLine
10
237.31250000000006
20
-4.9960036108132044e-15
30
0
11
284.5
21
-1.429412144204889e-14
31
0
0
LINE
5
195
100
AcDbEntity
8
0
100
AcDbLine
10
71.4375
20
4.9999999999999929
30
0
11
26.937499999999986
21
4.9999999999999938
31
0
0
LINE
5
196
100
AcDbEntity
8
0
100
AcDbLine
10
26.4375
20
4.4999999999999929
30
0
11
26.4375
21
1.4999999999999925
31
0
0
LINE
5
197
100
AcDbEntity
8
0
100
AcDbLine
10
26.937499999999996
20
0.99999999999999112
30
0
11
48.4375
21
0.999999999999996
31
0
0
LINE
5
198
100
AcDbEntity
8
0
100
AcDbLine
10
71.4375
20
4.9999999999999929
30
0
11
115.9375
21
4.9999999999999929
31
0
0
LINE
5
199
100
AcDbEntity
8
0
100
AcDbLine
10
116.4375
20
4.4999999999999929
30
0
11
116.4375
21
1.4999999999999929
31
0
0
LINE
5
200
100
AcDbEntity
8
0
100
AcDbLine
10
115.9375
20
0.99999999999999256
30
0
11
94.437500000000014
21
0.99999999999999256
31
0
0
LINE
5
201
100
AcDbEntity
8
0
100
AcDbLine
10
1.2499999999999998
20
0
30
0
11
48.4375
21
-2.3592239273284576e-15
31
0
0
LINE
5
202
100
AcDbEntity
8
0
100
AcDbLine
10
94.437500000000014
20
-4.7184478546569153e-15
30
0
11
191.31250000000009
21
-9.5756735873919752e-15
31
0
0
LINE
5
203
100
AcDbEntity
8
0
100
AcDbLine
10
214.31250000000006
20
-109.77500000000001
30
0
11
258.81250000000006
21
-109.77500000000001
31
0
0
LINE
5
204
100
AcDbEntity
8
0
100
AcDbLine
10
259.31250000000006
20
-109.27500000000001
30
0
11
259.31250000000006
21
-106.27500000000001
31
0
0
LINE
5
205
100
AcDbEntity
8
0
100
AcDbLine
10
258.81250000000006
20
-105.77500000000001
30
0
11
237.31250000000006
21
-105.77500000000001
31
0
0
LINE
5
206
100
AcDbEntity
8
0
100
AcDbLine
10
214.31250000000006
20
-109.77500000000001
30
0
11
169.81250000000006
21
-109.77500000000001
31
0
0
LINE
5
207
100
AcDbEntity
8
0
100
AcDbLine
10
169.31250000000006
20
-109.27500000000001
30
0
11
169.31250000000006
21
-106.27500000000001
31
0
0
LINE
5
208
100
AcDbEntity
8
0
100
AcDbLine
10
169.81250000000006
20
-105.77500000000001
30
0
11
191.31250000000006
21
-105.77500000000001
31
0
0
LINE
5
209
100
AcDbEntity
8
0
100
AcDbLine
10
237.31250000000006
20
-104.77500000000001
30
0
11
284.5
21
-104.77500000000001
31
0
0
LINE
5
210
100
AcDbEntity
8
0
100
AcDbLine
10
71.437499999999957
20
-109.77500000000001
30
0
11
26.93749999999995
21
-109.77500000000001
31
0
0
LINE
5
211
100
AcDbEntity
8
0
100
AcDbLine
10
26.437499999999968
20
-109.27500000000001
30
0
11
26.437499999999964
21
-106.27500000000001
31
0
0
LINE
5
212
100
AcDbEntity
8
0
100
AcDbLine
10
26.937499999999961
20
-105.77500000000001
30
0
11
48.437499999999964
21
-105.77500000000001
31
0
0
LINE
5
213
100
AcDbEntity
8
0
100
AcDbLine
10
71.437499999999957
20
-109.77500000000001
30
0
11
115.93749999999997
21
-109.77500000000001
31
0
0
LINE
5
214
100
AcDbEntity
8
0
100
AcDbLine
10
116.43749999999997
20
-109.27500000000001
30
0
11
116.43749999999997
21
-106.27500000000001
31
0
0
LINE
5
215
100
AcDbEntity
8
0
100
AcDbLine
10
115.93749999999997
20
-105.77500000000001
30
0
11
94.437499999999972
21
-105.77500000000001
31
0
0
LINE
5
216
100
AcDbEntity
8
0
100
AcDbLine
10
1.2499999999999998
20
-104.77500000000001
30
0
11
48.437499999999972
21
-104.77500000000001
31
0
0
LINE
5
217
100
AcDbEntity
8
0
100
AcDbLine
10
94.437499999999972
20
-104.77500000000001
30
0
11
191.31250000000006
21
-104.77500000000001
31
0
0
ARC
5
218
100
AcDbEntity
8
0
100
AcDbCircle
10
48.437499999999943
20
-105.27500000000003
30
0
40
0.50000000000002487
210
0
220
-0
230
1
100
AcDbArc
50
0
51
89.999999999996746
0
ARC
5
219
100
AcDbEntity
8
0
100
AcDbCircle
10
48.437499999999957
20
-105.27500000000001
30
0
40
0.50000000000000711
210
0
220
0
230
1
100
AcDbArc
50
270.0000000000008
51
360
0
ARC
5
220
100
AcDbEntity
8
0
100
AcDbCircle
10
26.937499999999972
20
-106.27500000000001
30
0
40
0.50000000000000711
210
0
220
-0
230
1
100
AcDbArc
50
90.000000000001208
51
180
0
ARC
5
221
100
AcDbEntity
8
0
100
AcDbCircle
10
26.937499999999993
20
-109.27499999999998
30
0
40
0.50000000000002487
210
0
220
0
230
1
100
AcDbArc
50
180
51
269.99999999999511
0
ARC
5
222
100
AcDbEntity
8
0
100
AcDbCircle
10
115.93749999999994
20
-109.27499999999998
30
0
40
0.50000000000002487
210
0
220
0
230
1
100
AcDbArc
50
270.00000000000324
51
360
0
ARC
5
223
100
AcDbEntity
8
0
100
AcDbCircle
10
115.93749999999997
20
-106.27500000000001
30
0
40
0.50000000000000711
210
0
220
-0
230
1
100
AcDbArc
50
0
51
90
0
ARC
5
224
100
AcDbEntity
8
0
100
AcDbCircle
10
94.437499999999972
20
-105.27500000000001
30
0
40
0.50000000000000711
210
0
220
0
230
1
100
AcDbArc
50
180
51
270
0
ARC
5
225
100
AcDbEntity
8
0
100
AcDbCircle
10
94.4375
20
-105.27500000000003
30
0
40
0.50000000000002487
210
0
220
0
230
1
100
AcDbArc
50
90.000000000003254
51
180
0
ARC
5
226
100
AcDbEntity
8
0
100
AcDbCircle
10
169.81250000000003
20
-106.27499999999998
30
0
40
0.49999999999997158
210
0
220
-0
230
1
100
AcDbArc
50
89.999999999996746
51
180
0
ARC
5
227
100
AcDbEntity
8
0
100
AcDbCircle
10
169.81250000000006
20
-109.27500000000001
30
0
40
0.50000000000000711
210
0
220
0
230
1
100
AcDbArc
50
180
51
270
0
ARC
5
228
100
AcDbEntity
8
0
100
AcDbCircle
10
191.31250000000009
20
-105.27500000000003
30
0
40
0.49999999999997158
210
0
220
0
230
1
100
AcDbArc
50
-90.000000000003254
51
0
0
ARC
5
229
100
AcDbEntity
8
0
100
AcDbCircle
10
191.31250000000006
20
-105.27500000000002
30
0
40
0.50000000000000711
210
0
220
-0
230
1
100
AcDbArc
50
0
51
90
0
ARC
5
230
100
AcDbEntity
8
0
100
AcDbCircle
10
258.81250000000006
20
-109.27500000000001
30
0
40
0.50000000000000711
210
0
220
0
230
1
100
AcDbArc
50
-90
51
0
0
ARC
5
231
100
AcDbEntity
8
0
100
AcDbCircle
10
258.81250000000011
20
-106.27499999999998
30
0
40
0.49999999999997158
210
-0
220
0
230
1
100
AcDbArc
50
0
51
90.000000000006523
0
ARC
5
232
100
AcDbEntity
8
0
100
AcDbCircle
10
237.31250000000003
20
-105.27500000000003
30
0
40
0.49999999999997158
210
0
220
0
230
1
100
AcDbArc
50
180
51
270.00000000000324
0
ARC
5
233
100
AcDbEntity
8
0
100
AcDbCircle
10
237.31250000000006
20
-105.27500000000002
30
0
40
0.50000000000000711
210
0
220
-0
230
1
100
AcDbArc
50
90
51
180
0
ARC
5
234
100
AcDbEntity
8
0
100
AcDbCircle
10
287.25
20
-96.887500000000017
30
0
40
0.49999999999997158
210
0
220
0
230
1
100
AcDbArc
50
180
51
270.00000000000648
0
ARC
5
235
100
AcDbEntity
8
0
100
AcDbCircle
10
290.25000000000006
20
-96.887500000000017
30
0
40
0.49999999999997158
210
0
220
0
230
1
100
AcDbArc
50
-90.000000000006523
51
0
0
ARC
5
236
100
AcDbEntity
8
0
100
AcDbCircle
10
286.25000000000006
20
-75.38749999999996
30
0
40
0.49999999999997158
210
-0
220
0
230
1
100
AcDbArc
50
0
51
90
0
ARC
5
237
100
AcDbEntity
8
0
100
AcDbCircle
10
286.25
20
-75.38749999999996
30
0
40
0.49999999999997158
210
0
220
-0
230
1
100
AcDbArc
50
89.999999999993491
51
180
0
ARC
5
238
100
AcDbEntity
8
0
100
AcDbCircle
10
290.25000000000006
20
-7.8874999999999842
30
0
40
0.49999999999997158
210
-0
220
0
230
1
100
AcDbArc
50
0
51
90.000000000006523
0
ARC
5
239
100
AcDbEntity
8
0
100
AcDbCircle
10
287.25
20
-7.8874999999999842
30
0
40
0.49999999999997158
210
0
220
-0
230
1
100
AcDbArc
50
89.999999999993491
51
180
0
ARC
5
240
100
AcDbEntity
8
0
100
AcDbCircle
10
286.25000000000006
20
-29.387500000000028
30
0
40
0.49999999999997602
210
0
220
0
230
1
100
AcDbArc
50
-90
51
0
0
ARC
5
241
100
AcDbEntity
8
0
100
AcDbCircle
10
286.25
20
-29.387500000000028
30
0
40
0.49999999999997158
210
0
220
0
230
1
100
AcDbArc
50
180
51
270.00000000000648
0
ARC
5
242
100
AcDbEntity
8
0
100
AcDbCircle
10
237.31250000000003
20
0.49999999999996658
30
0
40
0.49999999999997158
210
0
220
0
230
1
100
AcDbArc
50
180
51
270.00000000000324
0
ARC
5
243
100
AcDbEntity
8
0
100
AcDbCircle
10
237.31250000000003
20
0.50000000000001421
30
0
40
0.49999999999997835
210
0
220
-0
230
1
100
AcDbArc
50
89.999999999996746
51
180
0
ARC
5
244
100
AcDbEntity
8
0
100
AcDbCircle
10
258.81250000000011
20
1.4999999999999707
30
0
40
0.49999999999997158
210
0
220
0
230
1
100
AcDbArc
50
-90.000000000006523
51
0
0
ARC
5
245
100
AcDbEntity
8
0
100
AcDbCircle
10
258.81250000000011
20
4.5000000000000142
30
0
40
0.49999999999997158
210
-0
220
0
230
1
100
AcDbArc
50
0
51
90.000000000006523
0
ARC
5
246
100
AcDbEntity
8
0
100
AcDbCircle
10
169.81250000000003
20
4.5000000000000142
30
0
40
0.49999999999997158
210
0
220
-0
230
1
100
AcDbArc
50
89.999999999996746
51
180
0
ARC
5
247
100
AcDbEntity
8
0
100
AcDbCircle
10
169.81250000000003
20
1.4999999999999707
30
0
40
0.49999999999997158
210
0
220
-0
230
1
100
AcDbArc
50
180
51
270.00000000000324
0
ARC
5
248
100
AcDbEntity
8
0
100
AcDbCircle
10
191.31250000000009
20
0.50000000000001454
30
0
40
0.49999999999997158
210
0
220
0
230
1
100
AcDbArc
50
0
51
90.000000000003254
0
ARC
5
249
100
AcDbEntity
8
0
100
AcDbCircle
10
191.31250000000006
20
0.49999999999997763
30
0
40
0.49999999999998718
210
0
220
0
230
1
100
AcDbArc
50
-89.999999999996746
51
0
0
ARC
5
250
100
AcDbEntity
8
0
100
AcDbCircle
10
94.437500000000014
20
0.50000000000000389
30
0
40
0.50000000000000711
210
0
220
0
230
1
100
AcDbArc
50
180
51
270
0
ARC
5
251
100
AcDbEntity
8
0
100
AcDbCircle
10
94.437500000000014
20
0.49999999999998385
30
0
40
0.50000000000000866
210
0
220
-0
230
1
100
AcDbArc
50
90
51
180
0
ARC
5
252
100
AcDbEntity
8
0
100
AcDbCircle
10
115.9375
20
1.5000000000000011
30
0
40
0.50000000000000844
210
0
220
0
230
1
100
AcDbArc
50
270
51
360
0
ARC
5
253
100
AcDbEntity
8
0
100
AcDbCircle
10
115.9375
20
4.499999999999984
30
0
40
0.50000000000000711
210
0
220
-0
230
1
100
AcDbArc
50
0
51
90
0
ARC
5
254
100
AcDbEntity
8
0
100
AcDbCircle
10
26.937499999999996
20
4.4999999999999956
30
0
40
0.49999999999999822
210
0
220
0
230
1
100
AcDbArc
50
90.000000000001208
51
180
0
ARC
5
255
100
AcDbEntity
8
0
100
AcDbCircle
10
26.937499999999996
20
1.4999999999999893
30
0
40
0.49999999999999822
210
0
220
0
230
1
100
AcDbArc
50
180
51
270
0
ARC
5
256
100
AcDbEntity
8
0
100
AcDbCircle
10
48.4375
20
0.49999999999999789
30
0
40
0.49999999999999822
210
0
220
0
230
1
100
AcDbArc
50
0
51
90
0
ARC
5
257
100
AcDbEntity
8
0
100
AcDbCircle
10
48.4375
20
0.49999999999999245
30
0
40
0.49999999999999484
210
0
220
0
230
1
100
AcDbArc
50
-90
51
0
0
ARC
5
258
100
AcDbEntity
8
0
100
AcDbCircle
10
-4.5
20
-7.8875000000000037
30
0
40
0.49999999999999933
210
0
220
-0
230
1
100
AcDbArc
50
90
51
180
0
ARC
5
259
100
AcDbEntity
8
0
100
AcDbCircle
10
-1.5000000000000004
20
-7.8875000000000046
30
0
40
0.50000000000000067
210
0
220
0
230
1
100
AcDbArc
50
0
51
89.999999999999901
0
ARC
5
260
100
AcDbEntity
8
0
100
AcDbCircle
10
-0.50000000000000278
20
-29.387500000000006
30
0
40
0.49999999999999706
210
0
220
0
230
1
100
AcDbArc
50
180
51
270.00000000000034
0
ARC
5
261
100
AcDbEntity
8
0
100
AcDbCircle
10
-0.49999999999999717
20
-29.387500000000006
30
0
40
0.49999999999999822
210
0
220
0
230
1
100
AcDbArc
50
-90.000000000000369
51
0
0
ARC
5
262
100
AcDbEntity
8
0
100
AcDbCircle
10
-4.499999999999992
20
-96.887499999999989
30
0
40
0.50000000000000822
210
0
220
0
230
1
100
AcDbArc
50
180
51
269.99999999999909
0
ARC
5
263
100
AcDbEntity
8
0
100
AcDbCircle
10
-1.5000000000000082
20
-96.887499999999989
30
0
40
0.50000000000000711
210
-0
220
0
230
1
100
AcDbArc
50
-89.999999999998991
51
0
0
ARC
5
264
100
AcDbEntity
8
0
100
AcDbCircle
10
-0.50000000000000311
20
-75.387499999999989
30
0
40
0.49999999999999822
210
0
220
-0
230
1
100
AcDbArc
50
89.999999999999616
51
180
0
ARC
5
265
100
AcDbEntity
8
0
100
AcDbCircle
10
-0.50000000000001243
20
-75.387500000000003
30
0
40
0.50000000000001243
210
0
220
-0
230
1
100
AcDbArc
50
0
51
89.999999999997584
0
ENDSEC
0
SECTION
2
OBJECTS
0
DICTIONARY
5
C
100
AcDbDictionary
3
ACAD_GROUP
350
D
3
ACAD_MLINESTYLE
350
17
0
DICTIONARY
5
D
100
AcDbDictionary
0
DICTIONARY
5
1A
330
C
100
AcDbDictionary
0
DICTIONARY
5
17
100
AcDbDictionary
0
ENDSEC
0
EOF
