0
SECTION
2
HEADER
9
$INSUNITS
70
4
9
$ACADVER
1
AC1014
9
$HANDSEED
5
FFFF
0
ENDSEC
0
SECTION
2
TABLES
0
TABLE
2
VPORT
5
8
100
AcDbSymbolTable
0
ENDTAB
0
TABLE
2
LTYPE
5
5
100
AcDbSymbolTable
0
LTYPE
5
14
100
AcDbSymbolTableRecord
100
AcDbLinetypeTableRecord
2
BYBLOCK
70
0
0
LTYPE
5
15
100
AcDbSymbolTableRecord
100
AcDbLinetypeTableRecord
2
BYLAYER
70
0
0
ENDTAB
0
TABLE
2
LAYER
5
2
100
AcDbSymbolTable
70
2
0
LAYER
5
50
100
AcDbSymbolTableRecord
100
AcDbLayerTableRecord
2
0
70
0
6
CONTINUOUS
0
ENDTAB
0
TABLE
2
STYLE
5
3
100
AcDbSymbolTable
70
1
0
STYLE
5
11
100
AcDbSymbolTableRecord
100
AcDbTextStyleTableRecord
2
STANDARD
70
0
0
ENDTAB
0
TABLE
2
VIEW
5
6
100
AcDbSymbolTable
70
0
0
ENDTAB
0
TABLE
2
UCS
5
7
100
AcDbSymbolTable
70
0
0
ENDTAB
0
TABLE
2
APPID
5
9
100
AcDbSymbolTable
70
2
0
APPID
5
12
100
AcDbSymbolTableRecord
100
AcDbRegAppTableRecord
2
ACAD
70
0
0
ENDTAB
0
TABLE
2
DIMSTYLE
5
A
100
AcDbSymbolTable
70
1
0
ENDTAB
0
TABLE
2
BLOCK_RECORD
5
1
100
AcDbSymbolTable
70
1
0
BLOCK_RECORD
5
1F
100
AcDbSymbolTableRecord
100
AcDbBlockTableRecord
2
*MODEL_SPACE
0
BLOCK_RECORD
5
1B
100
AcDbSymbolTableRecord
100
AcDbBlockTableRecord
2
*PAPER_SPACE
0
ENDTAB
0
ENDSEC
0
SECTION
2
BLOCKS
0
BLOCK
5
20
100
AcDbEntity
100
AcDbBlockBegin
2
*MODEL_SPACE
0
ENDBLK
5
21
100
AcDbEntity
100
AcDbBlockEnd
0
BLOCK
5
1C
100
AcDbEntity
100
AcDbBlockBegin
2
*PAPER_SPACE
0
ENDBLK
5
1D
100
AcDbEntity
100
AcDbBlockEnd
0
ENDSEC
0
SECTION
2
ENTITIES
0
CIRCLE
5
100
100
AcDbEntity
8
0
100
AcDbCircle
10
3.4749999999999837
20
108.25000000000014
30
0
40
1.0999999999999999
210
0
220
0
230
1
0
CIRCLE
5
101
100
AcDbEntity
8
0
100
AcDbCircle
10
-289.22500000000008
20
108.24999999999997
30
0
40
1.0999999999999943
210
0
220
0
230
1
0
CIRCLE
5
102
100
AcDbEntity
8
0
100
AcDbCircle
10
-142.87500000000006
20
-3.4749999999999148
30
0
40
1.0999999999999943
210
0
220
0
230
1
0
CIRCLE
5
103
100
AcDbEntity
8
0
100
AcDbCircle
10
-142.87500000000009
20
108.25000000000004
30
0
40
1.0999999999999943
210
0
220
0
230
1
0
LWPOLYLINE
5
104
100
AcDbEntity
8
0
100
AcDbPolyline
90
8
70
1
43
0.0
10
-42.087500000000013
20
19.524999999999995
42
0.41421356237309709
10
-43.33750000000002
20
18.274999999999995
10
-43.337500000000013
20
0.77499999999999469
42
0.41421356237308748
10
-42.08750000000002
20
-0.4750000000000143
10
-24.587500000000006
20
-0.47500000000000098
42
0.41421356237309465
10
-23.337499999999988
20
0.77500000000000346
10
-23.337500000000006
20
18.275000000000002
42
0.41421356237309293
10
-24.587500000000023
20
19.525000000000002
0
LWPOLYLINE
5
105
100
AcDbEntity
8
0
100
AcDbPolyline
90
8
70
1
43
0.0
10
-48.400000000000027
20
-0.47500000000000958
42
0.4142135623730947
10
-47.150000000000034
20
0.7749999999999968
10
-47.150000000000034
20
18.274999999999995
42
0.41421356237309503
10
-48.400000000000034
20
19.525000000000002
10
-123.05
20
19.524999999999984
42
0.41421356237310386
10
-124.3
20
18.274999999999984
10
-124.3
20
0.77499999999995028
42
0.41421356237309859
10
-123.05
20
-0.47500000000004983
0
LWPOLYLINE
5
106
100
AcDbEntity
8
0
100
AcDbPolyline
90
8
70
1
43
0.0
10
-129.36250000000001
20
-0.4750000000000143
10
-204.01250000000002
20
-0.47500000000008341
42
-0.41421356237309986
10
-205.26250000000002
20
0.77499999999993696
10
-205.26249999999999
20
18.274999999999967
42
-0.41421356237310125
10
-204.01250000000002
20
19.524999999999977
10
-129.36250000000001
20
19.524999999999988
42
-0.41421356237310386
10
-128.11250000000001
20
18.274999999999984
10
-128.11250000000001
20
0.77499999999998581
42
-0.41421356237310414
0
LWPOLYLINE
5
107
100
AcDbEntity
8
0
100
AcDbPolyline
90
8
70
1
43
0.0
10
-210.32499999999999
20
-0.47500000000003206
10
-284.97500000000008
20
-0.47500000000005344
42
-0.41421356237309959
10
-286.22500000000008
20
0.77499999999996583
10
-286.22500000000008
20
18.274999999999967
42
-0.4142135623730992
10
-284.97500000000008
20
19.524999999999967
10
-210.32499999999999
20
19.524999999999999
42
-0.4142135623730997
10
-209.07499999999999
20
18.274999999999977
10
-209.07499999999999
20
0.77499999999996805
42
-0.41421356237310825
0
CIRCLE
5
108
100
AcDbEntity
8
0
100
AcDbCircle
10
3.474999999999997
20
-3.4749999999997772
30
0
40
1.0999999999999999
210
0
220
0
230
1
0
LWPOLYLINE
5
109
100
AcDbEntity
8
0
100
AcDbPolyline
90
8
70
1
43
0.0
10
-19.525000000000009
20
43.637500000000017
42
0.41421356237309137
10
-18.275000000000009
20
42.387500000000031
10
-0.77500000000001235
20
42.387500000000024
42
0.41421356237309093
10
0.47499999999999765
20
43.637500000000017
10
0.47499999999998765
20
99.237499999999997
42
0.41421356237310525
10
-0.77500000000002123
20
100.4875
10
-18.275000000000013
20
100.4875
42
0.41421356237310492
10
-19.525000000000009
20
99.237499999999997
0
LWPOLYLINE
5
110
100
AcDbEntity
8
0
100
AcDbPolyline
90
24
70
1
43
0.0
10
-76.200000000000017
20
99.237499999999983
42
0.41421356237309293
10
-77.450000000000017
20
100.48749999999998
10
-218.29975000000002
20
100.48750000000001
42
0.41421356237312834
10
-219.54975000000005
20
99.237499999999969
10
-219.54975000000002
20
82.687499999999972
42
-0.41421356237311169
10
-220.79975000000002
20
81.437499999999972
10
-237.34999999999999
20
81.437499999999972
42
0.41421356237306173
10
-238.60000000000014
20
80.187499999999972
10
-238.59999999999999
20
63.637499999999974
42
-0.41421356237309503
10
-239.84999999999999
20
62.387499999999974
10
-261.16250000000002
20
62.387499999999967
42
0.41421356237310752
10
-262.41250000000002
20
61.137499999999974
10
-262.41250000000002
20
24.587499999999828
42
0.41421356237309814
10
-261.16250000000002
20
23.337499999999824
10
-24.587000000000007
20
23.337500000000013
42
0.41421356237309293
10
-23.337000000000007
20
24.587500000000002
10
-23.337000000000032
20
99.237499999999997
42
0.41421356237309293
10
-24.587000000000021
20
100.4875
10
-70.662499999999994
20
100.4875
42
0.41421356237310336
10
-71.912499999999994
20
99.237499999999997
10
-71.912499999999994
20
82.687499999999972
42
-0.41421356237309503
10
-73.16249999999998
20
81.437499999999986
10
-74.950000000000017
20
81.437499999999986
42
-0.41421356237310336
10
-76.200000000000031
20
82.687499999999972
0
CIRCLE
5
111
100
AcDbEntity
8
0
100
AcDbCircle
10
-289.22500000000008
20
-3.4750000000000503
30
0
40
1.0999999999999943
210
0
220
0
230
1
0
CIRCLE
5
112
100
AcDbEntity
8
0
100
AcDbCircle
10
-25.837499999999999
20
-3.4749999999998051
30
0
40
1.1000000000000032
210
0
220
0
230
1
0
LWPOLYLINE
5
113
100
AcDbEntity
8
0
100
AcDbPolyline
90
8
70
1
43
0.0
10
-266.22500000000002
20
80.187499999999972
42
0.41421356237310752
10
-267.47500000000002
20
81.437499999999957
10
-284.97500000000008
20
81.437499999999957
42
0.41421356237311169
10
-286.22500000000008
20
80.187499999999972
10
-286.22500000000008
20
24.587499999999949
42
0.41421356237308776
10
-284.97500000000008
20
23.337499999999913
10
-267.47500000000002
20
23.33749999999997
42
0.41421356237311063
10
-266.22500000000002
20
24.587499999999984
0
LWPOLYLINE
5
114
100
AcDbEntity
8
0
100
AcDbPolyline
90
16
70
1
43
0.0
10
-224.61250000000007
20
85.25
10
-241.16250000000002
20
85.249999999999929
42
0.41421356237310752
10
-242.41250000000002
20
83.999999999999943
10
-242.41250000000002
20
67.450000000000003
42
-0.41421356237310125
10
-243.66250000000002
20
66.199999999999974
10
-261.16250000000002
20
66.19999999999996
42
-0.4142135623730992
10
-262.41250000000002
20
67.449999999999974
10
-262.41250000000002
20
83.999999999999972
42
0.41421356237310336
10
-263.66250000000002
20
85.249999999999943
10
-280.21250000000003
20
85.25
42
-0.41421356237310336
10
-281.46249999999998
20
86.499999999999972
10
-281.46250000000009
20
104.00000000000003
42
-0.41421356237312001
10
-280.21250000000003
20
105.24999999999997
10
-224.61250000000001
20
105.24999999999994
42
-0.41421356237307838
10
-223.36250000000007
20
104.00000000000003
10
-223.36250000000007
20
86.499999999999972
42
-0.41421356237310336
0
LWPOLYLINE
5
115
100
AcDbEntity
8
0
100
AcDbPolyline
90
8
70
1
43
0.0
10
-291.72500000000008
20
109.50000000000001
10
-291.72500000000008
20
-4.7250000000000547
42
0.4142135623731204
10
-290.47500000000002
20
-5.975000000000021
10
4.7250000000000014
20
-5.9749999999997723
42
0.41421356237309515
10
5.9749999999999979
20
-4.7249999999997758
10
5.9749999999999854
20
109.50000000000017
42
0.41421356237310425
10
4.7249999999999854
20
110.75000000000014
10
-290.47500000000008
20
110.74999999999997
42
0.41421356237310336
0
ENDSEC
0
SECTION
2
OBJECTS
0
DICTIONARY
5
C
100
AcDbDictionary
3
ACAD_GROUP
350
D
3
ACAD_MLINESTYLE
350
17
0
DICTIONARY
5
D
100
AcDbDictionary
0
DICTIONARY
5
1A
330
C
100
AcDbDictionary
0
DICTIONARY
5
17
100
AcDbDictionary
0
ENDSEC
0
EOF
