0
SECTION
2
HEADER
9
$INSUNITS
70
4
9
$ACADVER
1
AC1014
9
$HANDSEED
5
FFFF
0
ENDSEC
0
SECTION
2
TABLES
0
TABLE
2
VPORT
5
8
100
AcDbSymbolTable
0
ENDTAB
0
TABLE
2
LTYPE
5
5
100
AcDbSymbolTable
0
LTYPE
5
14
100
AcDbSymbolTableRecord
100
AcDbLinetypeTableRecord
2
BYBLOCK
70
0
0
LTYPE
5
15
100
AcDbSymbolTableRecord
100
AcDbLinetypeTableRecord
2
BYLAYER
70
0
0
ENDTAB
0
TABLE
2
LAYER
5
2
100
AcDbSymbolTable
70
2
0
LAYER
5
50
100
AcDbSymbolTableRecord
100
AcDbLayerTableRecord
2
0
70
0
6
CONTINUOUS
0
ENDTAB
0
TABLE
2
STYLE
5
3
100
AcDbSymbolTable
70
1
0
STYLE
5
11
100
AcDbSymbolTableRecord
100
AcDbTextStyleTableRecord
2
STANDARD
70
0
0
ENDTAB
0
TABLE
2
VIEW
5
6
100
AcDbSymbolTable
70
0
0
ENDTAB
0
TABLE
2
UCS
5
7
100
AcDbSymbolTable
70
0
0
ENDTAB
0
TABLE
2
APPID
5
9
100
AcDbSymbolTable
70
2
0
APPID
5
12
100
AcDbSymbolTableRecord
100
AcDbRegAppTableRecord
2
ACAD
70
0
0
ENDTAB
0
TABLE
2
DIMSTYLE
5
A
100
AcDbSymbolTable
70
1
0
ENDTAB
0
TABLE
2
BLOCK_RECORD
5
1
100
AcDbSymbolTable
70
1
0
BLOCK_RECORD
5
1F
100
AcDbSymbolTableRecord
100
AcDbBlockTableRecord
2
*MODEL_SPACE
0
BLOCK_RECORD
5
1B
100
AcDbSymbolTableRecord
100
AcDbBlockTableRecord
2
*PAPER_SPACE
0
ENDTAB
0
ENDSEC
0
SECTION
2
BLOCKS
0
BLOCK
5
20
100
AcDbEntity
100
AcDbBlockBegin
2
*MODEL_SPACE
0
ENDBLK
5
21
100
AcDbEntity
100
AcDbBlockEnd
0
BLOCK
5
1C
100
AcDbEntity
100
AcDbBlockBegin
2
*PAPER_SPACE
0
ENDBLK
5
1D
100
AcDbEntity
100
AcDbBlockEnd
0
ENDSEC
0
SECTION
2
ENTITIES
0
LWPOLYLINE
5
100
100
AcDbEntity
8
0
100
AcDbPolyline
90
8
70
1
43
0.0
10
-245.91250000000002
20
69.200000000000003
42
0.4142135623730222
10
-245.41250000000005
20
69.700000000000003
10
-245.41250000000002
20
82.700000000000017
42
0.4142135623730846
10
-245.91250000000002
20
83.200000000000017
10
-258.91250000000002
20
83.200000000000003
42
0.41421356237307422
10
-259.41250000000002
20
82.700000000000017
10
-259.41250000000002
20
69.700000000000003
42
0.41421356237313667
10
-258.91250000000002
20
69.200000000000003
0
LWPOLYLINE
5
101
100
AcDbEntity
8
0
100
AcDbPolyline
90
8
70
1
43
0.0
10
-178.00675000000001
20
84.487500000000011
42
0.41421356237307422
10
-177.50675000000001
20
84.987499999999997
10
-177.50675000000001
20
98.987499999999997
42
0.41421356237313667
10
-178.00675000000001
20
99.487500000000011
10
-184.00675000000004
20
99.487500000000011
42
0.41421356237313667
10
-184.50675000000004
20
98.987499999999997
10
-184.50675000000001
20
84.987499999999997
42
0.41421356237311585
10
-184.00675000000004
20
84.487500000000026
0
LWPOLYLINE
5
102
100
AcDbEntity
8
0
100
AcDbPolyline
90
8
70
1
43
0.0
10
-107.80000000000001
20
64.4375
42
0.41421356237310542
10
-107.30000000000001
20
64.9375
10
-107.30000000000001
20
77.9375
42
0.41421356237309503
10
-107.80000000000001
20
78.437500000000014
10
-120.8
20
78.4375
42
0.41421356237310025
10
-121.29999999999998
20
77.9375
10
-121.30000000000001
20
64.9375
42
0.41421356237307944
10
-120.8
20
64.4375
0
LWPOLYLINE
5
103
100
AcDbEntity
8
0
100
AcDbPolyline
90
8
70
1
43
0.0
10
-226.86250000000001
20
88.250000000000014
42
0.41421356237307422
10
-226.36250000000004
20
88.75
10
-226.36250000000004
20
101.75
42
0.41421356237309503
10
-226.86250000000001
20
102.24999999999997
10
-239.86250000000001
20
102.25000000000001
42
0.41421356237313667
10
-240.36250000000001
20
101.75
10
-240.36250000000001
20
88.75
42
0.41421356237313667
10
-239.86250000000001
20
88.25
0
LWPOLYLINE
5
104
100
AcDbEntity
8
0
100
AcDbPolyline
90
8
70
1
43
0.0
10
-238.76875000000001
20
45.387500000000003
42
0.41421356237307422
10
-238.26874999999998
20
45.887500000000003
10
-238.26875000000001
20
58.88750000000001
42
0.41421356237313145
10
-238.76875000000001
20
59.387500000000017
10
-251.76875000000001
20
59.387500000000003
42
0.4142135623730222
10
-252.26875000000004
20
58.88750000000001
10
-252.26875000000004
20
45.887500000000003
42
0.41421356237312101
10
-251.76875000000001
20
45.387499999999996
0
LWPOLYLINE
5
105
100
AcDbEntity
8
0
100
AcDbPolyline
90
8
70
1
43
0.0
10
-38.743749999999999
20
64.4375
42
0.41421356237309764
10
-38.243749999999999
20
64.9375
10
-38.243749999999999
20
77.9375
42
0.41421356237308982
10
-38.743750000000006
20
78.4375
10
-51.743750000000006
20
78.4375
42
0.41421356237309503
10
-52.243749999999984
20
77.9375
10
-52.243750000000006
20
64.9375
42
0.41421356237308982
10
-51.743750000000013
20
64.4375
0
LWPOLYLINE
5
106
100
AcDbEntity
8
0
100
AcDbPolyline
90
8
70
1
43
0.0
10
-222.10000000000002
20
64.4375
42
0.4142135623730222
10
-221.60000000000002
20
64.9375
10
-221.59999999999999
20
77.9375
42
0.41421356237312101
10
-222.10000000000002
20
78.437500000000014
10
-235.10000000000002
20
78.4375
42
0.41421356237307422
10
-235.60000000000002
20
77.9375
10
-235.60000000000002
20
64.9375
42
0.41421356237313667
10
-235.10000000000002
20
64.4375
0
CIRCLE
5
107
100
AcDbEntity
8
0
100
AcDbCircle
10
3.4749999999999992
20
-3.4749999999997798
30
0
40
1.1000000000000001
210
0
220
-0
230
1
0
LWPOLYLINE
5
108
100
AcDbEntity
8
0
100
AcDbPolyline
90
8
70
1
43
0.0
10
-200.66874999999999
20
83.487500000000011
42
0.4142135623730846
10
-200.16874999999999
20
83.987499999999997
10
-200.16874999999999
20
96.987500000000011
42
0.41421356237313667
10
-200.66874999999999
20
97.487500000000011
10
-213.66874999999999
20
97.487500000000011
42
0.41421356237310542
10
-214.16875000000002
20
96.987500000000011
10
-214.16875000000002
20
83.987499999999997
42
0.41421356237310542
10
-213.66874999999999
20
83.487499999999983
0
LWPOLYLINE
5
109
100
AcDbEntity
8
0
100
AcDbPolyline
90
8
70
1
43
0.0
10
-69.700000000000003
20
2.5249999999999999
42
0.41421356237309664
10
-69.200000000000003
20
3.0249999999999999
10
-69.200000000000003
20
16.024999999999999
42
0.41421356237310802
10
-69.700000000000017
20
16.524999999999999
10
-82.700000000000017
20
16.524999999999999
42
0.41421356237308721
10
-83.200000000000003
20
16.024999999999999
10
-83.200000000000003
20
3.0249999999999999
42
0.41421356237310997
10
-82.699999999999989
20
2.5250000000000128
0
LWPOLYLINE
5
110
100
AcDbEntity
8
0
100
AcDbPolyline
90
8
70
1
43
0.0
10
-174.47500000000002
20
45.387500000000003
42
0.41421356237307422
10
-173.97499999999997
20
45.887500000000003
10
-173.97500000000002
20
58.88750000000001
42
0.41421356237313145
10
-174.47500000000002
20
59.387500000000017
10
-187.47499999999999
20
59.387500000000003
42
0.41421356237307422
10
-187.97499999999999
20
58.88750000000001
10
-187.97499999999999
20
45.887500000000003
42
0.41421356237313145
10
-187.47499999999999
20
45.387499999999996
0
LWPOLYLINE
5
111
100
AcDbEntity
8
0
100
AcDbPolyline
90
8
70
1
43
0.0
10
-193.52500000000003
20
45.387500000000003
42
0.41421356237307422
10
-193.02499999999998
20
45.887500000000003
10
-193.02500000000003
20
58.88750000000001
42
0.41421356237313145
10
-193.52500000000003
20
59.387500000000017
10
-206.52500000000003
20
59.387500000000003
42
0.4142135623730222
10
-207.02500000000003
20
58.88750000000001
10
-207.02500000000001
20
45.887500000000003
42
0.41421356237310025
10
-206.52500000000003
20
45.387500000000031
0
CIRCLE
5
112
100
AcDbEntity
8
0
100
AcDbCircle
10
3.4749999999999992
20
108.25000000000011
30
0
40
1.1000000000000032
210
0
220
-0
230
1
0
LWPOLYLINE
5
113
100
AcDbEntity
8
0
100
AcDbPolyline
90
8
70
1
43
0.0
10
-264.96249999999998
20
88.250000000000014
42
0.4142135623730846
10
-264.46249999999998
20
88.75
10
-264.46249999999998
20
101.75
42
0.41421356237313667
10
-264.96249999999998
20
102.25000000000001
10
-277.96249999999998
20
102.25000000000001
42
0.41421356237310542
10
-278.46250000000003
20
101.75
10
-278.46249999999998
20
88.75
42
0.41421356237309503
10
-277.96249999999998
20
88.250000000000028
0
CIRCLE
5
114
100
AcDbEntity
8
0
100
AcDbCircle
10
-142.87500000000006
20
-3.4749999999998984
30
0
40
1.0999999999999943
210
0
220
-0
230
1
0
CIRCLE
5
115
100
AcDbEntity
8
0
100
AcDbCircle
10
-142.87500000000006
20
108.25000000000006
30
0
40
1.1000000000000119
210
0
220
-0
230
1
0
LWPOLYLINE
5
116
100
AcDbEntity
8
0
100
AcDbPolyline
90
8
70
1
43
0.0
10
-269.72500000000002
20
45.387500000000003
42
0.4142135623730222
10
-269.22500000000008
20
45.887500000000003
10
-269.22500000000002
20
58.88750000000001
42
0.41421356237312101
10
-269.72500000000002
20
59.387500000000017
10
-282.72500000000002
20
59.387500000000003
42
0.41421356237307422
10
-283.22500000000002
20
58.88750000000001
10
-283.22500000000002
20
45.887500000000003
42
0.41421356237313145
10
-282.72500000000002
20
45.387499999999996
0
CIRCLE
5
117
100
AcDbEntity
8
0
100
AcDbCircle
10
-289.22500000000008
20
-3.4750000000000165
30
0
40
1.0999999999999943
210
0
220
-0
230
1
0
LWPOLYLINE
5
118
100
AcDbEntity
8
0
100
AcDbPolyline
90
8
70
1
43
0.0
10
-88.75
20
64.4375
42
0.41421356237310542
10
-88.25
20
64.9375
10
-88.250000000000014
20
77.9375
42
0.41421356237311585
10
-88.75
20
78.437499999999986
10
-101.75
20
78.4375
42
0.41421356237308982
10
-102.25000000000001
20
77.9375
10
-102.25000000000001
20
64.9375
42
0.41421356237310025
10
-101.75
20
64.4375
0
CIRCLE
5
119
100
AcDbEntity
8
0
100
AcDbCircle
10
-289.22500000000008
20
108.25
30
0
40
1.0999999999999943
210
0
220
-0
230
1
0
LWPOLYLINE
5
120
100
AcDbEntity
8
0
100
AcDbPolyline
90
8
70
1
43
0.0
10
-126.85000000000001
20
64.4375
42
0.41421356237310542
10
-126.35000000000002
20
64.9375
10
-126.34999999999999
20
77.9375
42
0.41421356237307422
10
-126.85000000000001
20
78.437500000000014
10
-139.84999999999999
20
78.4375
42
0.41421356237308982
10
-140.34999999999999
20
77.9375
10
-140.34999999999999
20
64.9375
42
0.41421356237310025
10
-139.84999999999999
20
64.4375
0
CIRCLE
5
121
100
AcDbEntity
8
0
100
AcDbCircle
10
-25.837499999999991
20
-3.4749999999998034
30
0
40
1.1000000000000032
210
0
220
-0
230
1
0
LWPOLYLINE
5
122
100
AcDbEntity
8
0
100
AcDbPolyline
90
8
70
1
43
0.0
10
-69.700000000000003
20
64.4375
42
0.41421356237310542
10
-69.200000000000003
20
64.9375
10
-69.200000000000003
20
77.9375
42
0.41421356237310542
10
-69.700000000000017
20
78.4375
10
-82.700000000000017
20
78.4375
42
0.41421356237310025
10
-83.200000000000003
20
77.9375
10
-83.200000000000003
20
64.9375
42
0.41421356237310542
10
-82.699999999999989
20
64.437500000000014
0
LWPOLYLINE
5
123
100
AcDbEntity
8
0
100
AcDbPolyline
90
8
70
1
43
0.0
10
-155.42500000000001
20
45.387500000000003
42
0.41421356237310025
10
-154.92500000000004
20
45.887500000000003
10
-154.92500000000001
20
58.88750000000001
42
0.41421356237307422
10
-155.42500000000001
20
59.387500000000017
10
-168.42500000000001
20
59.387500000000003
42
0.4142135623730222
10
-168.92500000000001
20
58.88750000000001
10
-168.92500000000001
20
45.887500000000003
42
0.41421356237312101
10
-168.42500000000001
20
45.387499999999996
0
LWPOLYLINE
5
124
100
AcDbEntity
8
0
100
AcDbPolyline
90
8
70
1
43
0.0
10
-74.462500000000006
20
26.337499999999999
42
0.41421356237309764
10
-73.96250000000002
20
26.837499999999999
10
-73.962500000000006
20
39.837499999999999
42
0.41421356237312623
10
-74.462500000000034
20
40.337499999999991
10
-87.46250000000002
20
40.337500000000006
42
0.41421356237307683
10
-87.96250000000002
20
39.837499999999999
10
-87.962500000000006
20
26.837499999999999
42
0.41421356237309764
10
-87.46250000000002
20
26.337500000000009
0
LWPOLYLINE
5
125
100
AcDbEntity
8
0
100
AcDbPolyline
90
8
70
1
43
0.0
10
-250.67500000000001
20
2.5249999999999999
42
0.41421356237304624
10
-250.17500000000001
20
3.0249999999999999
10
-250.17500000000001
20
16.024999999999999
42
0.41421356237312362
10
-250.67500000000001
20
16.525000000000006
10
-263.67500000000001
20
16.524999999999999
42
0.41421356237307683
10
-264.17500000000007
20
16.024999999999999
10
-264.17500000000007
20
3.0249999999999999
42
0.41421356237313273
10
-263.67500000000001
20
2.524999999999995
0
LWPOLYLINE
5
126
100
AcDbEntity
8
0
100
AcDbPolyline
90
8
70
1
43
0.0
10
-269.72500000000002
20
2.5249999999999999
42
0.41421356237304624
10
-269.22500000000002
20
3.0249999999999999
10
-269.22500000000002
20
16.024999999999999
42
0.41421356237312362
10
-269.72500000000002
20
16.525000000000006
10
-282.72500000000002
20
16.524999999999999
42
0.41421356237307683
10
-283.22500000000002
20
16.024999999999999
10
-283.22500000000002
20
3.0249999999999999
42
0.41421356237313273
10
-282.72500000000002
20
2.524999999999995
0
LWPOLYLINE
5
127
100
AcDbEntity
8
0
100
AcDbPolyline
90
8
70
1
43
0.0
10
-212.57499999999999
20
45.387500000000003
42
0.4142135623730222
10
-212.07500000000005
20
45.887500000000003
10
-212.07499999999999
20
58.88750000000001
42
0.41421356237312101
10
-212.57499999999999
20
59.387500000000017
10
-225.57500000000002
20
59.387500000000003
42
0.41421356237307422
10
-226.07500000000002
20
58.88750000000001
10
-226.07500000000002
20
45.887500000000003
42
0.41421356237313145
10
-225.57500000000002
20
45.387499999999996
0
LWPOLYLINE
5
128
100
AcDbEntity
8
0
100
AcDbPolyline
90
8
70
1
43
0.0
10
-3.0249999999999999
20
83.487500000000011
42
0.41421356237311519
10
-2.5250000000000119
20
83.987499999999997
10
-2.5249999999999999
20
96.987500000000011
42
0.41421356237309631
10
-3.0249999999999844
20
97.487500000000011
10
-16.024999999999999
20
97.487500000000011
42
0.41421356237309631
10
-16.524999999999999
20
96.987500000000011
10
-16.524999999999999
20
83.987499999999997
42
0.41421356237310936
10
-16.024999999999991
20
83.487499999999983
0
LWPOLYLINE
5
129
100
AcDbEntity
8
0
100
AcDbPolyline
90
8
70
1
43
0.0
10
-3.0249999999999999
20
64.4375
42
0.41421356237309698
10
-2.5249999999999986
20
64.9375
10
-2.5249999999999999
20
77.9375
42
0.41421356237308493
10
-3.0249999999999844
20
78.4375
10
-16.024999999999999
20
78.4375
42
0.41421356237309503
10
-16.524999999999999
20
77.9375
10
-16.524999999999999
20
64.9375
42
0.41421356237310281
10
-16.024999999999991
20
64.4375
0
LWPOLYLINE
5
130
100
AcDbEntity
8
0
100
AcDbPolyline
90
8
70
1
43
0.0
10
-29.21875
20
45.387500000000003
42
0.41421356237309503
10
-28.71875
20
45.887500000000003
10
-28.71875
20
58.88750000000001
42
0.41421356237309503
10
-29.21875
20
59.387500000000003
10
-42.21875
20
59.387500000000003
42
0.41421356237309503
10
-42.718749999999979
20
58.88750000000001
10
-42.718750000000007
20
45.887500000000003
42
0.41421356237310025
10
-42.218750000000007
20
45.387499999999996
0
LWPOLYLINE
5
131
100
AcDbEntity
8
0
100
AcDbPolyline
90
8
70
1
43
0.0
10
-131.61250000000001
20
26.337499999999999
42
0.41421356237310542
10
-131.11250000000001
20
26.837499999999999
10
-131.11250000000001
20
39.837499999999999
42
0.41421356237309243
10
-131.61250000000001
20
40.337500000000013
10
-144.61250000000001
20
40.337500000000006
42
0.41421356237307683
10
-145.11250000000001
20
39.837499999999999
10
-145.11250000000001
20
26.837499999999999
42
0.41421356237307161
10
-144.61250000000001
20
26.337499999999991
0
LWPOLYLINE
5
132
100
AcDbEntity
8
0
100
AcDbPolyline
90
8
70
1
43
0.0
10
-93.512500000000003
20
26.337499999999999
42
0.41421356237310542
10
-93.012499999999989
20
26.837499999999999
10
-93.012500000000017
20
39.837499999999999
42
0.41421356237311324
10
-93.512500000000003
20
40.337499999999991
10
-106.51250000000002
20
40.337500000000006
42
0.41421356237310802
10
-107.01250000000002
20
39.837499999999999
10
-107.01250000000002
20
26.837499999999999
42
0.41421356237309243
10
-106.51250000000002
20
26.337499999999991
0
LWPOLYLINE
5
133
100
AcDbEntity
8
0
100
AcDbPolyline
90
8
70
1
43
0.0
10
-169.71250000000001
20
2.5249999999999999
42
0.41421356237307749
10
-169.21249999999998
20
3.0249999999999999
10
-169.21250000000001
20
16.024999999999999
42
0.41421356237313406
10
-169.71250000000001
20
16.525000000000006
10
-182.71250000000003
20
16.524999999999999
42
0.41421356237304563
10
-183.21250000000003
20
16.024999999999999
10
-183.21250000000003
20
3.0249999999999999
42
0.41421356237310153
10
-182.71250000000003
20
2.524999999999995
0
LWPOLYLINE
5
134
100
AcDbEntity
8
0
100
AcDbPolyline
90
8
70
1
43
0.0
10
-188.76249999999999
20
2.5249999999999999
42
0.41421356237304624
10
-188.26249999999999
20
3.0249999999999999
10
-188.26249999999999
20
16.024999999999999
42
0.41421356237312362
10
-188.76249999999999
20
16.525000000000006
10
-201.76249999999999
20
16.524999999999999
42
0.41421356237307683
10
-202.26249999999999
20
16.024999999999999
10
-202.26249999999999
20
3.0249999999999999
42
0.41421356237313273
10
-201.76249999999999
20
2.524999999999995
0
LWPOLYLINE
5
135
100
AcDbEntity
8
0
100
AcDbPolyline
90
8
70
1
43
0.0
10
-226.86250000000001
20
26.337499999999999
42
0.41421356237304563
10
-226.36250000000001
20
26.837499999999999
10
-226.36250000000004
20
39.837499999999999
42
0.414213562373069
10
-226.86250000000001
20
40.337499999999977
10
-239.86250000000001
20
40.337500000000006
42
0.41421356237313667
10
-240.36250000000001
20
39.837499999999999
10
-240.36250000000001
20
26.837499999999999
42
0.41421356237313145
10
-239.86250000000001
20
26.337499999999991
0
LWPOLYLINE
5
136
100
AcDbEntity
8
0
100
AcDbPolyline
90
8
70
1
43
0.0
10
-26.837499999999999
20
2.5249999999999999
42
0.41421356237309537
10
-26.337499999999999
20
3.0249999999999999
10
-26.337499999999999
20
16.024999999999999
42
0.41421356237309631
10
-26.837499999999999
20
16.524999999999999
10
-39.837499999999999
20
16.524999999999999
42
0.41421356237311191
10
-40.337500000000013
20
16.024999999999999
10
-40.337500000000006
20
3.0249999999999999
42
0.41421356237310153
10
-39.837500000000006
20
2.524999999999995
0
LWPOLYLINE
5
137
100
AcDbEntity
8
0
100
AcDbPolyline
90
8
70
1
43
0.0
10
-60.174999999999997
20
45.387500000000003
42
0.41421356237309503
10
-59.675000000000004
20
45.887500000000003
10
-59.675000000000004
20
58.88750000000001
42
0.41421356237310542
10
-60.175000000000018
20
59.387500000000003
10
-73.174999999999997
20
59.387500000000003
42
0.41421356237309503
10
-73.674999999999997
20
58.88750000000001
10
-73.674999999999997
20
45.887500000000003
42
0.41421356237310025
10
-73.174999999999983
20
45.387500000000003
0
LWPOLYLINE
5
138
100
AcDbEntity
8
0
100
AcDbPolyline
90
8
70
1
43
0.0
10
-79.224999999999994
20
45.387500000000003
42
0.41421356237309503
10
-78.724999999999994
20
45.887500000000003
10
-78.724999999999994
20
58.88750000000001
42
0.41421356237309503
10
-79.224999999999994
20
59.387500000000003
10
-92.224999999999994
20
59.387500000000003
42
0.41421356237308982
10
-92.725000000000009
20
58.88750000000001
10
-92.724999999999994
20
45.887500000000003
42
0.41421356237311585
10
-92.224999999999994
20
45.38750000000001
0
LWPOLYLINE
5
139
100
AcDbEntity
8
0
100
AcDbPolyline
90
8
70
1
43
0.0
10
-150.66249999999999
20
26.337499999999999
42
0.41421356237310542
10
-150.16249999999999
20
26.837499999999999
10
-150.16249999999999
20
39.837499999999999
42
0.41421356237309243
10
-150.66249999999999
20
40.337500000000013
10
-163.66250000000002
20
40.337500000000006
42
0.41421356237312623
10
-164.16250000000002
20
39.837499999999999
10
-164.16250000000002
20
26.837499999999999
42
0.41421356237310025
10
-163.66250000000002
20
26.337499999999991
0
LWPOLYLINE
5
140
100
AcDbEntity
8
0
100
AcDbPolyline
90
8
70
1
43
0.0
10
-188.76249999999999
20
26.337499999999999
42
0.41421356237304563
10
-188.26249999999999
20
26.837499999999999
10
-188.26249999999999
20
39.837499999999999
42
0.41421356237310025
10
-188.76249999999999
20
40.337500000000013
10
-201.76249999999999
20
40.337500000000006
42
0.41421356237313667
10
-202.26249999999999
20
39.837499999999999
10
-202.26249999999999
20
26.837499999999999
42
0.41421356237313145
10
-201.76249999999999
20
26.337499999999991
0
LWPOLYLINE
5
141
100
AcDbEntity
8
0
100
AcDbPolyline
90
8
70
1
43
0.0
10
-88.75
20
2.5249999999999999
42
0.41421356237310542
10
-88.249999999999972
20
3.0249999999999999
10
-88.250000000000014
20
16.024999999999999
42
0.41421356237311452
10
-88.75
20
16.524999999999991
10
-101.75
20
16.524999999999999
42
0.41421356237310414
10
-102.25000000000001
20
16.024999999999999
10
-102.25000000000001
20
3.0249999999999999
42
0.41421356237309437
10
-101.75
20
2.524999999999995
0
LWPOLYLINE
5
142
100
AcDbEntity
8
0
100
AcDbPolyline
90
8
70
1
43
0.0
10
-207.8125
20
26.337499999999999
42
0.41421356237304563
10
-207.3125
20
26.837499999999999
10
-207.31250000000003
20
39.837499999999999
42
0.414213562373069
10
-207.8125
20
40.337499999999977
10
-220.8125
20
40.337500000000006
42
0.41421356237313667
10
-221.3125
20
39.837499999999999
10
-221.3125
20
26.837499999999999
42
0.41421356237313145
10
-220.8125
20
26.337499999999991
0
LWPOLYLINE
5
143
100
AcDbEntity
8
0
100
AcDbPolyline
90
8
70
1
43
0.0
10
-131.61250000000001
20
2.5249999999999999
42
0.41421356237310542
10
-131.11250000000001
20
3.0249999999999999
10
-131.11250000000001
20
16.024999999999999
42
0.41421356237309631
10
-131.61250000000001
20
16.525000000000006
10
-144.61250000000001
20
16.524999999999999
42
0.41421356237308721
10
-145.11250000000001
20
16.024999999999999
10
-145.11250000000001
20
3.0249999999999999
42
0.41421356237307355
10
-144.61250000000001
20
2.524999999999995
0
LWPOLYLINE
5
144
100
AcDbEntity
8
0
100
AcDbPolyline
90
8
70
1
43
0.0
10
-245.91250000000002
20
26.337499999999999
42
0.41421356237304563
10
-245.41250000000002
20
26.837499999999999
10
-245.41250000000002
20
39.837499999999999
42
0.41421356237310025
10
-245.91250000000002
20
40.337500000000013
10
-258.91250000000002
20
40.337500000000006
42
0.41421356237313667
10
-259.41250000000002
20
39.837499999999999
10
-259.41250000000002
20
26.837499999999999
42
0.41421356237313145
10
-258.91250000000002
20
26.337499999999991
0
LWPOLYLINE
5
145
100
AcDbEntity
8
0
100
AcDbPolyline
90
8
70
1
43
0.0
10
-150.66249999999999
20
2.5249999999999999
42
0.41421356237310542
10
-150.16249999999997
20
3.0249999999999999
10
-150.16249999999999
20
16.024999999999999
42
0.41421356237309631
10
-150.66249999999999
20
16.525000000000006
10
-163.66250000000002
20
16.524999999999999
42
0.41421356237304563
10
-164.16250000000002
20
16.024999999999999
10
-164.16250000000002
20
3.0249999999999999
42
0.41421356237310153
10
-163.66250000000002
20
2.524999999999995
0
LWPOLYLINE
5
146
100
AcDbEntity
8
0
100
AcDbPolyline
90
8
70
1
43
0.0
10
-136.375
20
45.387500000000003
42
0.41421356237310025
10
-135.87500000000003
20
45.887500000000003
10
-135.875
20
58.88750000000001
42
0.41421356237307422
10
-136.375
20
59.387500000000017
10
-149.375
20
59.387500000000003
42
0.41421356237308982
10
-149.875
20
58.88750000000001
10
-149.875
20
45.887500000000003
42
0.41421356237309503
10
-149.375
20
45.387499999999996
0
LWPOLYLINE
5
147
100
AcDbEntity
8
0
100
AcDbPolyline
90
8
70
1
43
0.0
10
-112.56250000000001
20
26.337499999999999
42
0.41421356237310542
10
-112.0625
20
26.837499999999999
10
-112.0625
20
39.837499999999999
42
0.41421356237309243
10
-112.56250000000001
20
40.337500000000013
10
-125.5625
20
40.337500000000006
42
0.41421356237307683
10
-126.06250000000001
20
39.837499999999999
10
-126.06250000000001
20
26.837499999999999
42
0.41421356237307161
10
-125.5625
20
26.337499999999991
0
LWPOLYLINE
5
148
100
AcDbEntity
8
0
100
AcDbPolyline
90
8
70
1
43
0.0
10
-55.412500000000009
20
26.337499999999999
42
0.41421356237309503
10
-54.912500000000009
20
26.837499999999999
10
-54.912500000000009
20
39.837499999999999
42
0.41421356237311846
10
-55.412500000000016
20
40.337499999999991
10
-68.412499999999994
20
40.337500000000006
42
0.41421356237310542
10
-68.912499999999994
20
39.837499999999999
10
-68.912499999999994
20
26.837499999999999
42
0.41421356237310025
10
-68.412499999999994
20
26.337499999999999
0
LWPOLYLINE
5
149
100
AcDbEntity
8
0
100
AcDbPolyline
90
8
70
1
43
0.0
10
-31.600000000000001
20
26.337499999999999
42
0.41421356237309503
10
-31.100000000000001
20
26.837499999999999
10
-31.100000000000001
20
39.837499999999999
42
0.41421356237311324
10
-31.600000000000001
20
40.337499999999991
10
-44.600000000000001
20
40.337500000000006
42
0.41421356237310542
10
-45.100000000000016
20
39.837499999999999
10
-45.100000000000009
20
26.837499999999999
42
0.41421356237308982
10
-44.600000000000009
20
26.337499999999991
0
LWPOLYLINE
5
150
100
AcDbEntity
8
0
100
AcDbPolyline
90
8
70
1
43
0.0
10
-212.57499999999999
20
2.5249999999999999
42
0.41421356237304624
10
-212.07499999999999
20
3.0249999999999999
10
-212.07499999999999
20
16.024999999999999
42
0.41421356237312362
10
-212.57499999999999
20
16.525000000000006
10
-225.57500000000002
20
16.524999999999999
42
0.41421356237307683
10
-226.07500000000002
20
16.024999999999999
10
-226.07500000000002
20
3.0249999999999999
42
0.41421356237313273
10
-225.57500000000002
20
2.524999999999995
0
LWPOLYLINE
5
151
100
AcDbEntity
8
0
100
AcDbPolyline
90
8
70
1
43
0.0
10
-203.05000000000004
20
64.4375
42
0.41421356237307422
10
-202.54999999999998
20
64.9375
10
-202.55000000000001
20
77.9375
42
0.41421356237313145
10
-203.05000000000004
20
78.437500000000014
10
-216.05000000000004
20
78.4375
42
0.4142135623730222
10
-216.55000000000004
20
77.9375
10
-216.55000000000001
20
64.9375
42
0.41421356237310025
10
-216.05000000000004
20
64.437500000000028
0
LWPOLYLINE
5
152
100
AcDbEntity
8
0
100
AcDbPolyline
90
8
70
1
43
0.0
10
-145.90000000000001
20
64.4375
42
0.41421356237310542
10
-145.40000000000003
20
64.9375
10
-145.40000000000001
20
77.9375
42
0.41421356237307422
10
-145.90000000000001
20
78.437500000000014
10
-158.90000000000001
20
78.4375
42
0.41421356237308982
10
-159.40000000000001
20
77.9375
10
-159.40000000000001
20
64.9375
42
0.41421356237310025
10
-158.90000000000001
20
64.4375
0
LWPOLYLINE
5
153
100
AcDbEntity
8
0
100
AcDbPolyline
90
8
70
1
43
0.0
10
-107.80000000000001
20
2.5249999999999999
42
0.41421356237310542
10
-107.29999999999998
20
3.0249999999999999
10
-107.30000000000001
20
16.024999999999999
42
0.41421356237309631
10
-107.80000000000001
20
16.525000000000006
10
-120.8
20
16.524999999999999
42
0.41421356237308721
10
-121.29999999999998
20
16.024999999999999
10
-121.30000000000001
20
3.0249999999999999
42
0.41421356237307355
10
-120.8
20
2.524999999999995
0
LWPOLYLINE
5
154
100
AcDbEntity
8
0
100
AcDbPolyline
90
8
70
1
43
0.0
10
-269.72500000000002
20
26.337499999999999
42
0.41421356237304563
10
-269.22500000000002
20
26.837499999999999
10
-269.22500000000002
20
39.837499999999999
42
0.41421356237310025
10
-269.72500000000002
20
40.337500000000013
10
-282.72500000000002
20
40.337500000000006
42
0.41421356237313667
10
-283.22500000000002
20
39.837499999999999
10
-283.22500000000002
20
26.837499999999999
42
0.41421356237313145
10
-282.72500000000002
20
26.337499999999991
0
LWPOLYLINE
5
155
100
AcDbEntity
8
0
100
AcDbPolyline
90
8
70
1
43
0.0
10
-114.94374999999999
20
83.487500000000011
42
0.41421356237312623
10
-114.44375000000002
20
83.987499999999997
10
-114.44375000000001
20
96.987500000000011
42
0.41421356237312623
10
-114.94374999999999
20
97.487499999999997
10
-127.94375000000001
20
97.487500000000011
42
0.41421356237307422
10
-128.44375000000002
20
96.987500000000011
10
-128.44374999999999
20
83.987499999999997
42
0.41421356237312623
10
-127.94375000000001
20
83.487500000000011
0
LWPOLYLINE
5
156
100
AcDbEntity
8
0
100
AcDbPolyline
90
8
70
1
43
0.0
10
-3.0249999999999999
20
45.387500000000003
42
0.41421356237309437
10
-2.525000000000003
20
45.887500000000003
10
-2.5249999999999999
20
58.88750000000001
42
0.41421356237308493
10
-3.0249999999999844
20
59.387500000000003
10
-16.024999999999999
20
59.387500000000003
42
0.41421356237309503
10
-16.524999999999999
20
58.88750000000001
10
-16.524999999999999
20
45.887500000000003
42
0.41421356237310025
10
-16.024999999999991
20
45.387500000000003
0
LWPOLYLINE
5
157
100
AcDbEntity
8
0
100
AcDbPolyline
90
8
70
1
43
0.0
10
-30.305750000000003
20
65.4375
42
0.41421356237309764
10
-29.80575
20
65.9375
10
-29.80575
20
79.9375
42
0.414213562373069
10
-30.305749999999989
20
80.437500000000014
10
-36.305750000000003
20
80.437500000000014
42
0.41421356237306639
10
-36.80575000000001
20
79.9375
10
-36.805750000000003
20
65.9375
42
0.41421356237308204
10
-36.305750000000003
20
65.4375
0
LWPOLYLINE
5
158
100
AcDbEntity
8
0
100
AcDbPolyline
90
8
70
1
43
0.0
10
-50.650000000000006
20
2.5249999999999999
42
0.41421356237309404
10
-50.150000000000006
20
3.0249999999999999
10
-50.150000000000006
20
16.024999999999999
42
0.41421356237310025
10
-50.650000000000013
20
16.524999999999999
10
-63.650000000000006
20
16.524999999999999
42
0.41421356237309764
10
-64.149999999999991
20
16.024999999999999
10
-64.150000000000006
20
3.0249999999999999
42
0.41421356237311358
10
-63.649999999999984
20
2.524999999999995
0
LWPOLYLINE
5
159
100
AcDbEntity
8
0
100
AcDbPolyline
90
8
70
1
43
0.0
10
-31.600000000000001
20
83.487500000000011
42
0.41421356237311324
10
-31.100000000000016
20
83.987499999999997
10
-31.100000000000001
20
96.987500000000011
42
0.41421356237310542
10
-31.600000000000001
20
97.487500000000011
10
-44.600000000000001
20
97.487500000000011
42
0.41421356237309503
10
-45.100000000000016
20
96.987500000000011
10
-45.100000000000009
20
83.987499999999997
42
0.41421356237308982
10
-44.600000000000009
20
83.487499999999983
0
LWPOLYLINE
5
160
100
AcDbEntity
8
0
100
AcDbPolyline
90
8
70
1
43
0.0
10
-81.606250000000017
20
83.487500000000011
42
0.41421356237312623
10
-81.106250000000045
20
83.987499999999997
10
-81.106250000000003
20
96.987500000000011
42
0.41421356237306384
10
-81.606249999999989
20
97.487500000000011
10
-94.606250000000003
20
97.487500000000011
42
0.41421356237309503
10
-95.106250000000017
20
96.987500000000011
10
-95.106250000000017
20
83.987499999999997
42
0.41421356237309503
10
-94.606250000000003
20
83.487499999999983
0
LWPOLYLINE
5
161
100
AcDbEntity
8
0
100
AcDbPolyline
90
8
70
1
43
0.0
10
-169.71250000000001
20
26.337499999999999
42
0.41421356237307683
10
-169.21249999999998
20
26.837499999999999
10
-169.21250000000001
20
39.837499999999999
42
0.41421356237311063
10
-169.71250000000001
20
40.337500000000013
10
-182.71250000000003
20
40.337500000000006
42
0.41421356237312623
10
-183.21250000000003
20
39.837499999999999
10
-183.21250000000003
20
26.837499999999999
42
0.41421356237310025
10
-182.71250000000003
20
26.337499999999991
0
LWPOLYLINE
5
162
100
AcDbEntity
8
0
100
AcDbPolyline
90
8
70
1
43
0.0
10
-231.625
20
2.5249999999999999
42
0.41421356237304624
10
-231.125
20
3.0249999999999999
10
-231.125
20
16.024999999999999
42
0.41421356237312362
10
-231.625
20
16.525000000000006
10
-244.62500000000003
20
16.524999999999999
42
0.41421356237307683
10
-245.12500000000003
20
16.024999999999999
10
-245.12500000000003
20
3.0249999999999999
42
0.41421356237313273
10
-244.62500000000003
20
2.524999999999995
0
LWPOLYLINE
5
163
100
AcDbEntity
8
0
100
AcDbPolyline
90
8
70
1
43
0.0
10
-117.32500000000002
20
45.387500000000003
42
0.41421356237308982
10
-116.82500000000002
20
45.887500000000003
10
-116.82500000000002
20
58.88750000000001
42
0.41421356237309503
10
-117.32500000000002
20
59.387500000000017
10
-130.32499999999999
20
59.387500000000003
42
0.41421356237308982
10
-130.82499999999999
20
58.88750000000001
10
-130.82499999999999
20
45.887500000000003
42
0.41421356237309503
10
-130.32499999999999
20
45.387499999999996
0
LWPOLYLINE
5
164
100
AcDbEntity
8
0
100
AcDbPolyline
90
8
70
1
43
0.0
10
-269.72500000000002
20
64.4375
42
0.4142135623730222
10
-269.22500000000008
20
64.9375
10
-269.22500000000002
20
77.9375
42
0.41421356237312101
10
-269.72500000000002
20
78.437500000000014
10
-282.72500000000002
20
78.4375
42
0.41421356237307422
10
-283.22500000000002
20
77.9375
10
-283.22500000000002
20
64.9375
42
0.41421356237313667
10
-282.72500000000002
20
64.4375
0
LWPOLYLINE
5
165
100
AcDbEntity
8
0
100
AcDbPolyline
90
8
70
1
43
0.0
10
-164.95000000000002
20
64.4375
42
0.41421356237307422
10
-164.44999999999996
20
64.9375
10
-164.44999999999999
20
77.9375
42
0.41421356237313145
10
-164.95000000000002
20
78.437500000000014
10
-177.94999999999999
20
78.4375
42
0.41421356237307422
10
-178.44999999999999
20
77.9375
10
-178.44999999999999
20
64.9375
42
0.41421356237313667
10
-177.94999999999999
20
64.4375
0
LWPOLYLINE
5
166
100
AcDbEntity
8
0
100
AcDbPolyline
90
8
70
1
43
0.0
10
-184.00000000000003
20
64.4375
42
0.41421356237307422
10
-183.49999999999997
20
64.9375
10
-183.5
20
77.9375
42
0.41421356237313145
10
-184.00000000000003
20
78.437500000000014
10
-197.00000000000003
20
78.4375
42
0.4142135623730222
10
-197.50000000000003
20
77.9375
10
-197.5
20
64.9375
42
0.41421356237310025
10
-197.00000000000003
20
64.437500000000028
0
LWPOLYLINE
5
167
100
AcDbEntity
8
0
100
AcDbPolyline
90
8
70
1
43
0.0
10
-55.412500000000009
20
83.487500000000011
42
0.41421356237311585
10
-54.912500000000016
20
83.987499999999997
10
-54.912500000000009
20
96.987500000000011
42
0.41421356237309503
10
-55.412500000000016
20
97.487500000000011
10
-68.412499999999994
20
97.487500000000011
42
0.41421356237309503
10
-68.912499999999994
20
96.987500000000011
10
-68.912499999999994
20
83.987499999999997
42
0.41421356237309503
10
-68.412499999999994
20
83.487499999999983
0
LWPOLYLINE
5
168
100
AcDbEntity
8
0
100
AcDbPolyline
90
8
70
1
43
0.0
10
-98.275000000000006
20
45.387500000000003
42
0.41421356237308982
10
-97.775000000000006
20
45.887500000000003
10
-97.77500000000002
20
58.88750000000001
42
0.41421356237311585
10
-98.275000000000006
20
59.387499999999996
10
-111.27500000000001
20
59.387500000000003
42
0.41421356237308982
10
-111.77500000000002
20
58.88750000000001
10
-111.77500000000002
20
45.887500000000003
42
0.41421356237309503
10
-111.27500000000001
20
45.387499999999996
0
LWPOLYLINE
5
169
100
AcDbEntity
8
0
100
AcDbPolyline
90
8
70
1
43
0.0
10
-54.181750000000008
20
65.4375
42
0.41421356237309503
10
-53.681750000000008
20
65.9375
10
-53.681750000000008
20
79.9375
42
0.41421356237310025
10
-54.181750000000015
20
80.4375
10
-60.181750000000001
20
80.437500000000014
42
0.41421356237307422
10
-60.681750000000001
20
79.9375
10
-60.681750000000001
20
65.9375
42
0.41421356237310025
10
-60.181749999999994
20
65.4375
0
LWPOLYLINE
5
170
100
AcDbEntity
8
0
100
AcDbPolyline
90
8
70
1
43
0.0
10
-154.13075000000001
20
84.487500000000011
42
0.41421356237309503
10
-153.63075000000003
20
84.987499999999997
10
-153.63075000000003
20
98.987499999999997
42
0.41421356237312623
10
-154.13075000000001
20
99.487499999999983
10
-160.13075000000001
20
99.487500000000011
42
0.41421356237310542
10
-160.63075000000001
20
98.987499999999997
10
-160.63075000000001
20
84.987499999999997
42
0.4142135623730846
10
-160.13075000000001
20
84.487499999999983
0
LWPOLYLINE
5
171
100
AcDbEntity
8
0
100
AcDbPolyline
90
8
70
1
43
0.0
10
-245.91250000000002
20
88.250000000000014
42
0.41421356237307422
10
-245.41250000000005
20
88.75
10
-245.41250000000002
20
101.75
42
0.41421356237310542
10
-245.91250000000002
20
102.25000000000001
10
-258.91250000000002
20
102.25000000000001
42
0.41421356237313667
10
-259.41250000000002
20
101.75
10
-259.41250000000002
20
88.75
42
0.41421356237313667
10
-258.91250000000002
20
88.25
0
LWPOLYLINE
5
172
100
AcDbEntity
8
0
100
AcDbPolyline
90
8
70
1
43
0.0
10
-130.38175000000001
20
84.487500000000011
42
0.41421356237312623
10
-129.88175000000001
20
84.987499999999997
10
-129.88175000000001
20
98.987499999999997
42
0.41421356237309503
10
-130.38175000000001
20
99.487500000000011
10
-136.38175000000001
20
99.487500000000011
42
0.41421356237307422
10
-136.88175000000004
20
98.987499999999997
10
-136.88175000000001
20
84.987499999999997
42
0.41421356237309503
10
-136.38175000000001
20
84.487500000000011
0
LWPOLYLINE
5
173
100
AcDbEntity
8
0
100
AcDbPolyline
90
8
70
1
43
0.0
10
-162.56875000000002
20
83.487500000000011
42
0.41421356237307422
10
-162.06875000000002
20
83.987499999999997
10
-162.06874999999999
20
96.987500000000011
42
0.41421356237310542
10
-162.56875000000002
20
97.487500000000011
10
-175.56875000000002
20
97.487500000000011
42
0.41421356237313667
10
-176.06875000000002
20
96.987500000000011
10
-176.06874999999999
20
83.987499999999997
42
0.41421356237311585
10
-175.56875000000002
20
83.487500000000026
0
LWPOLYLINE
5
174
100
AcDbEntity
8
0
100
AcDbPolyline
90
8
70
1
43
0.0
10
-106.50575000000002
20
84.487500000000011
42
0.41421356237309503
10
-106.00575000000003
20
84.987499999999997
10
-106.00575000000001
20
98.987499999999997
42
0.41421356237307422
10
-106.50575000000002
20
99.487500000000011
10
-112.50575000000001
20
99.487500000000011
42
0.41421356237309503
10
-113.00575000000002
20
98.987499999999997
10
-113.00575000000002
20
84.987499999999997
42
0.41421356237307422
10
-112.50575000000001
20
84.487499999999983
0
LWPOLYLINE
5
175
100
AcDbEntity
8
0
100
AcDbPolyline
90
18
70
1
43
0.0
10
0.47499999999995879
20
-0.44974487139138652
10
0.47499999999974563
20
-4.7249999999997172
42
0.41421356237310908
10
1.724999999999743
20
-5.9749999999997794
10
4.7250000000000014
20
-5.9749999999997794
42
0.41421356237309453
10
5.9749999999999996
20
-4.7249999999997785
10
5.9750000000000014
20
109.50000000000014
42
0.41421356237309737
10
4.7250000000000005
20
110.75000000000011
10
-290.47500000000008
20
110.75000000000001
42
0.41421356237310752
10
-291.72500000000008
20
109.50000000000003
10
-291.72500000000008
20
-4.7250000000000192
42
0.41421356237311635
10
-290.47500000000002
20
-5.9750000000000032
10
-24.587499999999984
20
-5.974999999999806
42
0.41421356237309503
10
-23.337499999999991
20
-4.7249999999998025
10
-23.337499999999988
20
41.137499999999996
42
-0.41421356237309609
10
-22.087500000000002
20
42.387499999999996
10
-0.27499999999999869
20
42.387500000000003
42
-0.41421356237309215
10
0.97500000000000309
20
41.137500000000003
10
0.97500000000000975
20
0.77500000000022784
42
-0.19626156828141048
0
ENDSEC
0
SECTION
2
OBJECTS
0
DICTIONARY
5
C
100
AcDbDictionary
3
ACAD_GROUP
350
D
3
ACAD_MLINESTYLE
350
17
0
DICTIONARY
5
D
100
AcDbDictionary
0
DICTIONARY
5
1A
330
C
100
AcDbDictionary
0
DICTIONARY
5
17
100
AcDbDictionary
0
ENDSEC
0
EOF
