0
SECTION
2
HEADER
9
$INSUNITS
70
4
9
$ACADVER
1
AC1014
9
$HANDSEED
5
FFFF
0
ENDSEC
0
SECTION
2
TABLES
0
TABLE
2
VPORT
5
8
100
AcDbSymbolTable
0
ENDTAB
0
TABLE
2
LTYPE
5
5
100
AcDbSymbolTable
0
LTYPE
5
14
100
AcDbSymbolTableRecord
100
AcDbLinetypeTableRecord
2
BYBLOCK
70
0
0
LTYPE
5
15
100
AcDbSymbolTableRecord
100
AcDbLinetypeTableRecord
2
BYLAYER
70
0
0
ENDTAB
0
TABLE
2
LAYER
5
2
100
AcDbSymbolTable
70
2
0
LAYER
5
50
100
AcDbSymbolTableRecord
100
AcDbLayerTableRecord
2
0
70
0
6
CONTINUOUS
0
ENDTAB
0
TABLE
2
STYLE
5
3
100
AcDbSymbolTable
70
1
0
STYLE
5
11
100
AcDbSymbolTableRecord
100
AcDbTextStyleTableRecord
2
STANDARD
70
0
0
ENDTAB
0
TABLE
2
VIEW
5
6
100
AcDbSymbolTable
70
0
0
ENDTAB
0
TABLE
2
UCS
5
7
100
AcDbSymbolTable
70
0
0
ENDTAB
0
TABLE
2
APPID
5
9
100
AcDbSymbolTable
70
2
0
APPID
5
12
100
AcDbSymbolTableRecord
100
AcDbRegAppTableRecord
2
ACAD
70
0
0
ENDTAB
0
TABLE
2
DIMSTYLE
5
A
100
AcDbSymbolTable
70
1
0
ENDTAB
0
TABLE
2
BLOCK_RECORD
5
1
100
AcDbSymbolTable
70
1
0
BLOCK_RECORD
5
1F
100
AcDbSymbolTableRecord
100
AcDbBlockTableRecord
2
*MODEL_SPACE
0
BLOCK_RECORD
5
1B
100
AcDbSymbolTableRecord
100
AcDbBlockTableRecord
2
*PAPER_SPACE
0
ENDTAB
0
ENDSEC
0
SECTION
2
BLOCKS
0
BLOCK
5
20
100
AcDbEntity
100
AcDbBlockBegin
2
*MODEL_SPACE
0
ENDBLK
5
21
100
AcDbEntity
100
AcDbBlockEnd
0
BLOCK
5
1C
100
AcDbEntity
100
AcDbBlockBegin
2
*PAPER_SPACE
0
ENDBLK
5
1D
100
AcDbEntity
100
AcDbBlockEnd
0
ENDSEC
0
SECTION
2
ENTITIES
0
LWPOLYLINE
5
100
100
AcDbEntity
8
0
100
AcDbPolyline
90
8
70
1
43
0.0
10
-0.77499999999998748
20
42.387500000000003
10
-18.275000000000009
20
42.387499999999996
42
-0.41421356237309193
10
-19.525000000000009
20
43.637499999999989
10
-19.525000000000002
20
99.237500000000011
42
-0.41421356237310386
10
-18.274999999999999
20
100.48750000000001
10
-0.77499999999999913
20
100.48750000000001
42
-0.41421356237310353
10
0.47499999999999498
20
99.237500000000011
10
0.47500000000001735
20
43.637500000000003
42
-0.41421356237309204
0
LWPOLYLINE
5
101
100
AcDbEntity
8
0
100
AcDbPolyline
90
8
70
1
43
0.0
10
-129.36250000000001
20
-0.4749999999999992
42
0.41421356237310342
10
-128.11250000000001
20
0.77500000000000124
10
-128.11250000000001
20
18.274999999999999
42
0.41421356237310386
10
-129.36250000000001
20
19.524999999999999
10
-204.01250000000002
20
19.524999999999999
42
0.41421356237309814
10
-205.26250000000002
20
18.274999999999999
10
-205.26250000000002
20
0.7749999999999585
42
0.41421356237309903
10
-204.01250000000002
20
-0.47500000000005649
0
LWPOLYLINE
5
102
100
AcDbEntity
8
0
100
AcDbPolyline
90
16
70
1
43
0.0
10
-224.61250000000004
20
85.250000000000028
42
0.41421356237312001
10
-223.36250000000004
20
86.5
10
-223.36250000000004
20
104.00000000000003
42
0.4142135623730992
10
-224.61250000000001
20
105.25
10
-280.21250000000003
20
105.25
42
0.41421356237311169
10
-281.46250000000003
20
104.00000000000003
10
-281.46249999999998
20
86.5
42
0.41421356237309503
10
-280.21250000000003
20
85.250000000000028
10
-263.66250000000002
20
85.249999999999986
42
-0.4142135623730992
10
-262.41250000000002
20
84
10
-262.41250000000002
20
67.450000000000003
42
0.4142135623730992
10
-261.16250000000002
20
66.199999999999989
10
-243.66250000000002
20
66.199999999999989
42
0.41421356237309709
10
-242.41250000000002
20
67.450000000000017
10
-242.41250000000002
20
83.999999999999986
42
-0.41421356237310752
10
-241.16250000000002
20
85.249999999999986
0
LWPOLYLINE
5
103
100
AcDbEntity
8
0
100
AcDbPolyline
90
8
70
1
43
0.0
10
-210.32499999999999
20
-0.47500000000000042
42
0.41421356237310769
10
-209.07499999999999
20
0.77499999999999902
10
-209.07499999999999
20
18.274999999999999
42
0.4142135623730992
10
-210.32499999999999
20
19.525000000000006
10
-284.97500000000008
20
19.524999999999999
42
0.41421356237309814
10
-286.22500000000008
20
18.274999999999999
10
-286.22500000000008
20
0.77499999999999958
42
0.41421356237309898
10
-284.97500000000008
20
-0.47500000000001208
0
CIRCLE
5
104
100
AcDbEntity
8
0
100
AcDbCircle
10
3.4749999999999992
20
108.25000000000011
30
0
40
1.0999999999999999
210
0
220
-0
230
1
0
LWPOLYLINE
5
105
100
AcDbEntity
8
0
100
AcDbPolyline
90
24
70
1
43
0.0
10
-24.587000000000003
20
23.337500000000006
42
0.41421356237309293
10
-23.337000000000003
20
24.587500000000002
10
-23.33700000000001
20
99.237500000000011
42
0.41421356237310231
10
-24.587000000000003
20
100.48750000000001
10
-70.66249999999998
20
100.48750000000001
42
0.41421356237310336
10
-71.912499999999994
20
99.237500000000011
10
-71.912499999999994
20
82.6875
42
-0.41421356237309709
10
-73.162499999999994
20
81.4375
10
-74.950000000000017
20
81.4375
42
-0.41421356237310336
10
-76.200000000000017
20
82.6875
10
-76.200000000000017
20
99.237500000000011
42
0.41421356237310542
10
-77.450000000000017
20
100.48750000000001
10
-218.29974999999996
20
100.48750000000004
42
0.41421356237310752
10
-219.54975000000002
20
99.237500000000011
10
-219.54975000000002
20
82.6875
42
-0.41421356237310752
10
-220.79975000000002
20
81.437500000000028
10
-237.35000000000002
20
81.4375
42
0.4142135623730992
10
-238.60000000000008
20
80.1875
10
-238.60000000000002
20
63.637500000000003
42
-0.41421356237309709
10
-239.85000000000002
20
62.387499999999996
10
-261.16250000000002
20
62.387500000000003
42
0.41421356237309709
10
-262.41250000000002
20
61.137500000000003
10
-262.41250000000002
20
24.587499999999846
42
0.41421356237309087
10
-261.16250000000002
20
23.337499999999846
0
CIRCLE
5
106
100
AcDbEntity
8
0
100
AcDbCircle
10
3.4749999999999992
20
-3.4749999999997798
30
0
40
1.0999999999999999
210
0
220
-0
230
1
0
LWPOLYLINE
5
107
100
AcDbEntity
8
0
100
AcDbPolyline
90
8
70
1
43
0.0
10
-43.337500000000006
20
0.77499999999999625
42
0.41421356237309404
10
-42.087500000000006
20
-0.47499999999999942
10
-24.587500000000002
20
-0.47500000000000087
42
0.41421356237309215
10
-23.337499999999999
20
0.7749999999999968
10
-23.337500000000002
20
18.275000000000002
42
0.41421356237309293
10
-24.587500000000002
20
19.524999999999999
10
-42.087500000000006
20
19.524999999999999
42
0.41421356237309553
10
-43.337500000000006
20
18.274999999999999
0
LWPOLYLINE
5
108
100
AcDbEntity
8
0
100
AcDbPolyline
90
8
70
1
43
0.0
10
-48.400000000000006
20
-0.47500000000000486
42
0.41421356237308965
10
-47.15000000000002
20
0.77500000000000124
10
-47.15000000000002
20
18.274999999999999
42
0.41421356237309293
10
-48.40000000000002
20
19.524999999999999
10
-123.05
20
19.524999999999999
42
0.41421356237310442
10
-124.3
20
18.274999999999999
10
-124.30000000000001
20
0.77499999999996194
42
0.41421356237309287
10
-123.05
20
-0.47500000000004761
0
CIRCLE
5
109
100
AcDbEntity
8
0
100
AcDbCircle
10
-142.87500000000006
20
-3.4749999999998984
30
0
40
1.0999999999999943
210
0
220
-0
230
1
0
CIRCLE
5
110
100
AcDbEntity
8
0
100
AcDbCircle
10
-25.837499999999991
20
-3.4749999999998034
30
0
40
1.1000000000000032
210
0
220
-0
230
1
0
CIRCLE
5
111
100
AcDbEntity
8
0
100
AcDbCircle
10
-289.22500000000008
20
108.25
30
0
40
1.0999999999999943
210
0
220
-0
230
1
0
CIRCLE
5
112
100
AcDbEntity
8
0
100
AcDbCircle
10
-289.22500000000008
20
-3.4750000000000165
30
0
40
1.0999999999999943
210
0
220
-0
230
1
0
CIRCLE
5
113
100
AcDbEntity
8
0
100
AcDbCircle
10
-142.87500000000006
20
108.25000000000006
30
0
40
1.0999999999999943
210
0
220
-0
230
1
0
LWPOLYLINE
5
114
100
AcDbEntity
8
0
100
AcDbPolyline
90
8
70
1
43
0.0
10
-286.22500000000008
20
24.587499999999984
42
0.41421356237309087
10
-284.97500000000008
20
23.337499999999967
10
-267.47500000000002
20
23.337499999999999
42
0.41421356237309814
10
-266.22500000000002
20
24.587500000000002
10
-266.22500000000002
20
80.1875
42
0.41421356237311169
10
-267.47500000000002
20
81.437499999999986
10
-284.97500000000008
20
81.437499999999986
42
0.41421356237311169
10
-286.22500000000008
20
80.1875
0
LWPOLYLINE
5
115
100
AcDbEntity
8
0
100
AcDbPolyline
90
8
70
1
43
0.0
10
4.7250000000000014
20
-5.9749999999997785
42
0.41421356237309453
10
5.9749999999999996
20
-4.7249999999997785
10
5.9750000000000005
20
109.50000000000014
42
0.41421356237309737
10
4.7250000000000005
20
110.75000000000011
10
-290.47500000000008
20
110.75000000000001
42
0.41421356237310752
10
-291.72500000000008
20
109.50000000000003
10
-291.72500000000008
20
-4.7250000000000192
42
0.41421356237311635
10
-290.47500000000002
20
-5.9750000000000032
0
ENDSEC
0
SECTION
2
OBJECTS
0
DICTIONARY
5
C
100
AcDbDictionary
3
ACAD_GROUP
350
D
3
ACAD_MLINESTYLE
350
17
0
DICTIONARY
5
D
100
AcDbDictionary
0
DICTIONARY
5
1A
330
C
100
AcDbDictionary
0
DICTIONARY
5
17
100
AcDbDictionary
0
ENDSEC
0
EOF
