0
SECTION
2
HEADER
9
$INSUNITS
70
4
9
$ACADVER
1
AC1014
9
$HANDSEED
5
FFFF
0
ENDSEC
0
SECTION
2
TABLES
0
TABLE
2
VPORT
5
8
100
AcDbSymbolTable
0
ENDTAB
0
TABLE
2
LTYPE
5
5
100
AcDbSymbolTable
0
LTYPE
5
14
100
AcDbSymbolTableRecord
100
AcDbLinetypeTableRecord
2
BYBLOCK
70
0
0
LTYPE
5
15
100
AcDbSymbolTableRecord
100
AcDbLinetypeTableRecord
2
BYLAYER
70
0
0
ENDTAB
0
TABLE
2
LAYER
5
2
100
AcDbSymbolTable
70
2
0
LAYER
5
50
100
AcDbSymbolTableRecord
100
AcDbLayerTableRecord
2
0
70
0
6
CONTINUOUS
0
ENDTAB
0
TABLE
2
STYLE
5
3
100
AcDbSymbolTable
70
1
0
STYLE
5
11
100
AcDbSymbolTableRecord
100
AcDbTextStyleTableRecord
2
STANDARD
70
0
0
ENDTAB
0
TABLE
2
VIEW
5
6
100
AcDbSymbolTable
70
0
0
ENDTAB
0
TABLE
2
UCS
5
7
100
AcDbSymbolTable
70
0
0
ENDTAB
0
TABLE
2
APPID
5
9
100
AcDbSymbolTable
70
2
0
APPID
5
12
100
AcDbSymbolTableRecord
100
AcDbRegAppTableRecord
2
ACAD
70
0
0
ENDTAB
0
TABLE
2
DIMSTYLE
5
A
100
AcDbSymbolTable
70
1
0
ENDTAB
0
TABLE
2
BLOCK_RECORD
5
1
100
AcDbSymbolTable
70
1
0
BLOCK_RECORD
5
1F
100
AcDbSymbolTableRecord
100
AcDbBlockTableRecord
2
*MODEL_SPACE
0
BLOCK_RECORD
5
1B
100
AcDbSymbolTableRecord
100
AcDbBlockTableRecord
2
*PAPER_SPACE
0
ENDTAB
0
ENDSEC
0
SECTION
2
BLOCKS
0
BLOCK
5
20
100
AcDbEntity
100
AcDbBlockBegin
2
*MODEL_SPACE
0
ENDBLK
5
21
100
AcDbEntity
100
AcDbBlockEnd
0
BLOCK
5
1C
100
AcDbEntity
100
AcDbBlockBegin
2
*PAPER_SPACE
0
ENDBLK
5
1D
100
AcDbEntity
100
AcDbBlockEnd
0
ENDSEC
0
SECTION
2
ENTITIES
0
LWPOLYLINE
5
100
100
AcDbEntity
8
0
100
AcDbPolyline
90
8
70
1
43
0.0
10
0.47499999999999987
20
99.237499999999997
10
0.47500000000000875
20
43.637500000000003
42
-0.4142135623730846
10
-0.77499999999998237
20
42.387500000000024
10
-18.275000000000002
20
42.387500000000031
42
-0.41421356237309087
10
-19.524999999999999
20
43.637500000000017
10
-19.524999999999995
20
99.237499999999997
42
-0.41421356237310492
10
-18.274999999999988
20
100.4875
10
-0.77499999999998814
20
100.4875
42
-0.41421356237310941
0
LWPOLYLINE
5
101
100
AcDbEntity
8
0
100
AcDbPolyline
90
8
70
1
43
0.0
10
-123.05000000000001
20
19.52500000000002
42
0.41421356237310492
10
-124.3
20
18.275000000000023
10
-124.3
20
0.77499999999998026
42
0.41421356237309859
10
-123.05
20
-0.47500000000003095
10
-48.40000000000002
20
-0.47499999999999515
42
0.41421356237309648
10
-47.150000000000027
20
0.77500000000000568
10
-47.150000000000027
20
18.275000000000009
42
0.41421356237309137
10
-48.400000000000027
20
19.525000000000006
0
LWPOLYLINE
5
102
100
AcDbEntity
8
0
100
AcDbPolyline
90
8
70
1
43
0.0
10
-129.36250000000001
20
-0.47499999999997766
10
-204.01250000000005
20
-0.47499999999996978
42
-0.4142135623730937
10
-205.26250000000002
20
0.77499999999998914
10
-205.26250000000007
20
18.275000000000023
42
-0.41421356237312779
10
-204.01250000000002
20
19.525000000000027
10
-129.36250000000004
20
19.525000000000023
42
-0.41421356237310442
10
-128.11250000000004
20
18.27500000000002
10
-128.11250000000004
20
0.77500000000002356
42
-0.41421356237309975
0
LWPOLYLINE
5
103
100
AcDbEntity
8
0
100
AcDbPolyline
90
16
70
1
43
0.0
10
-243.66250000000002
20
66.200000000000031
10
-261.16250000000008
20
66.200000000000088
42
-0.41421356237309503
10
-262.41250000000002
20
67.45000000000006
10
-262.41250000000008
20
84.000000000000043
42
0.4142135623730992
10
-263.66250000000008
20
85.249999999999972
10
-280.21250000000003
20
85.250000000000071
42
-0.41421356237310336
10
-281.46249999999998
20
86.500000000000043
10
-281.46250000000009
20
104.00000000000009
42
-0.41421356237312001
10
-280.21250000000003
20
105.25000000000004
10
-224.61250000000001
20
105.25000000000004
42
-0.4142135623730992
10
-223.36250000000007
20
104.00000000000009
10
-223.36250000000007
20
86.500000000000043
42
-0.41421356237310336
10
-224.61250000000007
20
85.250000000000071
10
-241.16250000000005
20
85.25
42
0.4142135623730992
10
-242.41250000000002
20
84.000000000000028
10
-242.41250000000002
20
67.450000000000045
42
-0.41421356237309709
0
CIRCLE
5
104
100
AcDbEntity
8
0
100
AcDbCircle
10
-25.837499999999991
20
-3.4749999999997971
30
0
40
1.1000000000000032
210
0
220
0
230
1
0
CIRCLE
5
105
100
AcDbEntity
8
0
100
AcDbCircle
10
-142.87500000000006
20
108.25000000000009
30
0
40
1.0999999999999943
210
0
220
0
230
1
0
LWPOLYLINE
5
106
100
AcDbEntity
8
0
100
AcDbPolyline
90
8
70
1
43
0.0
10
-43.337500000000013
20
0.77500000000000457
10
-43.337500000000006
20
18.275000000000006
42
-0.41421356237309398
10
-42.087500000000013
20
19.525000000000006
10
-24.587499999999991
20
19.525000000000006
42
-0.41421356237309503
10
-23.337499999999991
20
18.275000000000006
10
-23.337499999999999
20
0.7750000000000058
42
-0.41421356237308815
10
-24.587500000000002
20
-0.4749999999999957
10
-42.087500000000013
20
-0.47500000000000753
42
-0.41421356237308959
0
LWPOLYLINE
5
107
100
AcDbEntity
8
0
100
AcDbPolyline
90
8
70
1
43
0.0
10
-266.22500000000002
20
80.187500000000043
42
0.41421356237310752
10
-267.47500000000002
20
81.437500000000028
10
-284.97500000000008
20
81.437500000000028
42
0.41421356237311169
10
-286.22500000000008
20
80.187500000000043
10
-286.22500000000008
20
24.58750000000002
42
0.41421356237308776
10
-284.97500000000008
20
23.337499999999991
10
-267.47500000000002
20
23.337500000000034
42
0.41421356237310858
10
-266.22500000000002
20
24.587500000000038
0
CIRCLE
5
108
100
AcDbEntity
8
0
100
AcDbCircle
10
-289.22500000000008
20
-3.4749999999999783
30
0
40
1.0999999999999943
210
0
220
0
230
1
0
CIRCLE
5
109
100
AcDbEntity
8
0
100
AcDbCircle
10
3.4750000000000112
20
108.25000000000014
30
0
40
1.0999999999999999
210
0
220
0
230
1
0
LWPOLYLINE
5
110
100
AcDbEntity
8
0
100
AcDbPolyline
90
24
70
1
43
0.0
10
-262.41250000000002
20
24.587499999999896
10
-262.41250000000008
20
61.137500000000045
42
-0.41421356237313456
10
-261.16250000000002
20
62.387500000000045
10
-239.85000000000011
20
62.387500000000031
42
0.41421356237312001
10
-238.59999999999999
20
63.637500000000031
10
-238.60000000000014
20
80.187500000000043
42
-0.41421356237306173
10
-237.34999999999999
20
81.437500000000043
10
-220.79975000000005
20
81.437500000000057
42
0.4142135623731325
10
-219.54975000000002
20
82.687500000000043
10
-219.54975000000005
20
99.23750000000004
42
-0.41421356237313667
10
-218.29974999999996
20
100.4875000000001
10
-77.450000000000017
20
100.48750000000001
42
-0.41421356237309293
10
-76.200000000000017
20
99.237500000000011
10
-76.200000000000017
20
82.687500000000028
42
0.41421356237310336
10
-74.950000000000017
20
81.437500000000028
10
-73.16249999999998
20
81.437500000000028
42
0.41421356237310752
10
-71.912499999999994
20
82.687500000000028
10
-71.912499999999994
20
99.237500000000011
42
-0.41421356237309503
10
-70.66249999999998
20
100.4875
10
-24.586999999999986
20
100.4875
42
-0.41421356237310752
10
-23.337
20
99.237499999999997
10
-23.337
20
24.587500000000013
42
-0.41421356237308982
10
-24.586999999999996
20
23.33750000000002
10
-261.16250000000002
20
23.337499999999878
42
-0.4142135623730992
0
LWPOLYLINE
5
111
100
AcDbEntity
8
0
100
AcDbPolyline
90
8
70
1
43
0.0
10
-284.97500000000008
20
19.525000000000041
10
-210.32499999999999
20
19.525000000000048
42
-0.41421356237310025
10
-209.07499999999999
20
18.275000000000027
10
-209.07499999999999
20
0.77500000000002356
42
-0.41421356237310847
10
-210.32499999999999
20
-0.47499999999997056
10
-284.97500000000008
20
-0.47499999999997433
42
-0.41421356237309798
10
-286.22500000000008
20
0.77500000000003799
10
-286.22500000000008
20
18.275000000000041
42
-0.4142135623730992
0
CIRCLE
5
112
100
AcDbEntity
8
0
100
AcDbCircle
10
-142.87500000000009
20
-3.474999999999878
30
0
40
1.0999999999999943
210
0
220
0
230
1
0
CIRCLE
5
113
100
AcDbEntity
8
0
100
AcDbCircle
10
-289.22500000000008
20
108.25000000000004
30
0
40
1.0999999999999943
210
0
220
0
230
1
0
CIRCLE
5
114
100
AcDbEntity
8
0
100
AcDbCircle
10
3.4749999999999979
20
-3.4749999999997772
30
0
40
1.0999999999999999
210
0
220
0
230
1
0
LWPOLYLINE
5
115
100
AcDbEntity
8
0
100
AcDbPolyline
90
16
70
1
43
0.0
10
-19.087500000000009
20
40.88750000000001
42
0.41421356237309293
10
-20.337500000000016
20
39.637500000000017
10
-20.337499999999999
20
-4.7249999999997954
42
-0.41421356237309087
10
-21.587499999999977
20
-5.9749999999997891
10
-290.47500000000002
20
-5.9749999999999481
42
-0.41421356237312013
10
-291.72500000000008
20
-4.7249999999999837
10
-291.72500000000008
20
109.50000000000009
42
-0.41421356237310336
10
-290.47500000000008
20
110.75000000000004
10
4.725000000000013
20
110.75000000000014
42
-0.41421356237310425
10
5.9750000000000139
20
109.50000000000017
10
5.9749999999999943
20
-4.7249999999997758
42
-0.41421356237309553
10
4.7249999999999996
20
-5.9749999999997714
10
0.13600000000000062
20
-5.9749999999997785
42
-0.41421356237309814
10
-1.1139999999999983
20
-4.7249999999997705
10
-1.1139999999999761
20
39.63750000000001
42
0.41421356237310231
10
-2.363999999999975
20
40.887499999999989
0
ENDSEC
0
SECTION
2
OBJECTS
0
DICTIONARY
5
C
100
AcDbDictionary
3
ACAD_GROUP
350
D
3
ACAD_MLINESTYLE
350
17
0
DICTIONARY
5
D
100
AcDbDictionary
0
DICTIONARY
5
1A
330
C
100
AcDbDictionary
0
DICTIONARY
5
17
100
AcDbDictionary
0
ENDSEC
0
EOF
